<?xml version="1.0" encoding="UTF-8" standalone="no"?>
<!-- Generator: Adobe Illustrator 21.0.0, SVG Export Plug-In . SVG Version: 6.00 Build 0)  -->

<svg
   xmlns:dc="http://purl.org/dc/elements/1.1/"
   xmlns:cc="http://creativecommons.org/ns#"
   xmlns:rdf="http://www.w3.org/1999/02/22-rdf-syntax-ns#"
   xmlns:svg="http://www.w3.org/2000/svg"
   xmlns="http://www.w3.org/2000/svg"
   xmlns:sodipodi="http://sodipodi.sourceforge.net/DTD/sodipodi-0.dtd"
   xmlns:inkscape="http://www.inkscape.org/namespaces/inkscape"
   version="1.1"
   id="Layer_1"
   x="0px"
   y="0px"
   viewBox="0 0 32 32"
   xml:space="preserve"
   sodipodi:docname="koompi-light.svg"
   inkscape:version="0.92.4 5da689c313, 2019-01-14"
   width="32"
   height="32"><metadata
   id="metadata21"><rdf:RDF><cc:Work
       rdf:about=""><dc:format>image/svg+xml</dc:format><dc:type
         rdf:resource="http://purl.org/dc/dcmitype/StillImage" /><dc:title /></cc:Work></rdf:RDF></metadata><defs
   id="defs19">
	

		
		
		
		
	</defs><sodipodi:namedview
   pagecolor="#ffffff"
   bordercolor="#666666"
   borderopacity="1"
   objecttolerance="10"
   gridtolerance="10"
   guidetolerance="10"
   inkscape:pageopacity="0"
   inkscape:pageshadow="2"
   inkscape:window-width="1920"
   inkscape:window-height="1006"
   id="namedview17"
   showgrid="false"
   inkscape:zoom="8.6289124"
   inkscape:cx="-18.558451"
   inkscape:cy="11.466668"
   inkscape:window-x="0"
   inkscape:window-y="0"
   inkscape:window-maximized="1"
   inkscape:current-layer="Layer_1" />
<style
   type="text/css"
   id="style2">
	.st0{fill:#FFFFFF;}
</style>
<path
   class="st0"
   d="M 15,0 V 10.78125 C 15,13.125001 13.125,15 10.781249,15 H 0 C 7.125,12.750001 12.75,7.125001 15,0 Z"
   id="path8"
   inkscape:connector-curvature="0"
   style="fill:#ffffff;stroke-width:0.93750006" />
<path
   class="st0"
   d="M 32,15 H 21.21875 C 18.874999,15 17,13.125 17,10.781249 V 0 c 2.249999,7.125 7.874999,12.75 15,15 z"
   id="path8-3"
   inkscape:connector-curvature="0"
   style="fill:#ffffff;stroke-width:0.93750006" /><path
   class="st0"
   d="M 0,17 H 10.78125 C 13.125001,17 15,18.875 15,21.218751 V 32 C 12.750001,24.875 7.125001,19.25 0,17 Z"
   id="path8-6"
   inkscape:connector-curvature="0"
   style="fill:#ffffff;stroke-width:0.93750006" /><path
   class="st0"
   d="M 17,32 V 21.21875 C 17,18.874999 18.875,17 21.218751,17 H 32 c -7.125,2.249999 -12.75,7.874999 -15,15 z"
   id="path8-6-7"
   inkscape:connector-curvature="0"
   style="fill:#ffffff;stroke-width:0.93750006" /></svg>