<?xml version="1.0" encoding="UTF-8" standalone="no"?>
<!-- Created with Inkscape (http://www.inkscape.org/) -->

<svg
   xmlns:dc="http://purl.org/dc/elements/1.1/"
   xmlns:cc="http://creativecommons.org/ns#"
   xmlns:rdf="http://www.w3.org/1999/02/22-rdf-syntax-ns#"
   xmlns:svg="http://www.w3.org/2000/svg"
   xmlns="http://www.w3.org/2000/svg"
   xmlns:sodipodi="http://sodipodi.sourceforge.net/DTD/sodipodi-0.dtd"
   xmlns:inkscape="http://www.inkscape.org/namespaces/inkscape"
   width="1920"
   height="1080"
   viewBox="0 0 507.99999 285.75001"
   version="1.1"
   id="svg8"
   inkscape:version="0.92.4 5da689c313, 2019-01-14"
   sodipodi:docname="1-welcome.svg"
   inkscape:export-filename="/home/brilliant/projects/koompi-os-welcome/src/edited/texted/1.png"
   inkscape:export-xdpi="300"
   inkscape:export-ydpi="300">
  <defs
     id="defs2">
    <style
       id="style817">.cls-1{fill:#fff;}</style>
  </defs>
  <sodipodi:namedview
     id="base"
     pagecolor="#ffffff"
     bordercolor="#666666"
     borderopacity="1.0"
     inkscape:pageopacity="0.0"
     inkscape:pageshadow="2"
     inkscape:zoom="0.49497475"
     inkscape:cx="723.75043"
     inkscape:cy="344.65338"
     inkscape:document-units="mm"
     inkscape:current-layer="layer1"
     showgrid="false"
     units="px"
     inkscape:window-width="1920"
     inkscape:window-height="1018"
     inkscape:window-x="0"
     inkscape:window-y="32"
     inkscape:window-maximized="1" />
  <metadata
     id="metadata5">
    <rdf:RDF>
      <cc:Work
         rdf:about="">
        <dc:format>image/svg+xml</dc:format>
        <dc:type
           rdf:resource="http://purl.org/dc/dcmitype/StillImage" />
        <dc:title />
      </cc:Work>
    </rdf:RDF>
  </metadata>
  <g
     inkscape:label="Layer 1"
     inkscape:groupmode="layer"
     id="layer1"
     transform="translate(0,-11.249983)">
    <rect
       style="opacity:1;fill:#333333;fill-opacity:1;stroke:#333333;stroke-width:1.58864498;stroke-miterlimit:4;stroke-dasharray:none;stroke-opacity:1"
       id="rect815"
       width="508"
       height="285.75"
       x="0.12205896"
       y="11.249975" />
    <text
       xml:space="preserve"
       style="font-style:normal;font-variant:normal;font-weight:bold;font-stretch:normal;font-size:12.69999981px;line-height:6.61458302px;font-family:sans-serif;-inkscape-font-specification:'sans-serif Bold';letter-spacing:0px;word-spacing:0px;fill:#000000;fill-opacity:1;stroke:none;stroke-width:0.26458332"
       x="-109.04597"
       y="75.700813"
       id="text827"><tspan
         sodipodi:role="line"
         id="tspan825"
         x="-109.04597"
         y="75.700813"
         style="stroke-width:0.26458332"> </tspan></text>
    <text
       xml:space="preserve"
       style="font-style:normal;font-variant:normal;font-weight:bold;font-stretch:normal;font-size:12.69999981px;line-height:6.61458302px;font-family:sans-serif;-inkscape-font-specification:'sans-serif Bold';letter-spacing:0px;word-spacing:0px;fill:#000000;fill-opacity:1;stroke:none;stroke-width:0.26458332"
       x="-99.424263"
       y="112.04947"
       id="text831"><tspan
         sodipodi:role="line"
         id="tspan829"
         x="-99.424263"
         y="112.04947"
         style="stroke-width:0.26458332"> </tspan></text>
    <text
       xml:space="preserve"
       style="font-style:normal;font-variant:normal;font-weight:normal;font-stretch:normal;font-size:11.28888889px;line-height:6.61458302px;font-family:sans-serif;-inkscape-font-specification:sans-serif;letter-spacing:0px;word-spacing:0px;fill:#000000;fill-opacity:1;stroke:none;stroke-width:0.26458332;"
       x="249.0952"
       y="198.11024"
       id="text835"><tspan
         sodipodi:role="line"
         id="tspan833"
         x="249.0952"
         y="204.71655"
         style="stroke-width:0.26458332;font-size:11.28888889px;-inkscape-font-specification:sans-serif;font-family:sans-serif;font-weight:normal;font-style:normal;font-stretch:normal;font-variant:normal;" /></text>
    <text
       xml:space="preserve"
       style="font-style:normal;font-variant:normal;font-weight:normal;font-stretch:normal;font-size:12.69999981px;line-height:6.61458302px;font-family:sans-serif;-inkscape-font-specification:sans-serif;letter-spacing:0px;word-spacing:0px;fill:#000000;fill-opacity:1;stroke:none;stroke-width:0.26458332;"
       x="250.16428"
       y="199.71388"
       id="text839"><tspan
         sodipodi:role="line"
         id="tspan837"
         x="250.16428"
         y="206.32019"
         style="stroke-width:0.26458332;-inkscape-font-specification:sans-serif;font-family:sans-serif;font-weight:normal;font-style:normal;font-stretch:normal;font-variant:normal;" /></text>
    <path
       inkscape:connector-curvature="0"
       style="fill:#3f3d56;stroke-width:0.40158525"
       d="m 138.82874,70.319041 a 13.808674,13.808674 0 0 0 -0.90259,-3.455459 1.5641183,1.5641183 0 0 0 -0.79517,-0.979375 1.6385121,1.6385121 0 0 0 -0.78902,-0.0088 l -4.05091,0.619846 a 1.552874,1.552874 0 0 0 -0.92425,0.359126 c -0.52762,0.554868 -0.008,1.448342 -0.0243,2.21384 -0.0182,0.860794 -0.78299,1.559504 -1.61238,1.790668 a 6.0949842,6.0949842 0 0 1 -2.56198,-0.03177 l -5.66436,-0.880252 a 9.3393112,9.3393112 0 0 0 4.28514,-2.859572 c 0.74542,-0.883046 1.14199,-2.53167 0.0647,-2.949841 a 2.6445956,2.6445956 0 0 0 -0.98384,-0.079 c -2.56635,0.01996 -4.58586,-2.122779 -6.98839,-3.025229 a 7.726858,7.726858 0 0 0 -8.69617,2.592385 l 3.01746,0.145482 a 1.3393511,1.3393511 0 0 1 0.80376,0.214362 c 0.66129,0.543325 -0.16086,1.586932 -0.0677,2.43772 0.12097,1.105355 1.5887,1.341362 2.69504,1.453135 1.10634,0.111771 2.50987,1.010658 1.97769,1.987008 -5.5606,1.915322 -11.21912,-3.744035 -17.05893,-3.047386 -1.478035,0.17632 -2.873685,0.756962 -4.316721,1.122066 -8.815094,2.230332 -17.928329,-3.72045 -26.933437,-2.460179 a 34.20013,34.20013 0 0 0 -5.879375,1.550608 c -1.225611,0.402422 -2.50401,0.837305 -3.39452,1.77059 -0.890525,0.933285 -1.229451,2.529373 -0.38581,3.505253 a 19.728146,19.728146 0 0 1 -6.913606,-0.657178 3.8732898,3.8732898 0 0 1 1.991326,3.413591 41.020067,41.020067 0 0 0 -10.50838,3.204146 17.699236,17.699236 0 0 0 2.174987,2.897349 l -4.59628,2.95287 c 1.552841,0.391244 2.355698,2.508669 1.452666,3.831115 1.61012,-0.716296 2.607995,-2.56929 4.329752,-2.944977 1.127981,-0.246127 2.275727,0.215316 3.345788,0.648785 1.07006,0.433469 2.246163,0.853794 3.353904,0.528469 1.107731,-0.325341 1.924795,-1.761699 1.220899,-2.676827 a 57.31388,57.31388 0 0 1 14.558565,-2.274549 1.8258276,1.8258276 0 0 1 1.102592,0.209244 c 0.641834,0.445293 0.472963,1.407079 0.438387,2.187488 -0.03461,0.780408 0.573669,1.806048 1.27116,1.454297 -0.8206,0.711577 -0.119148,2.051159 0.668182,2.79942 0.787284,0.748277 1.736184,1.780777 1.254191,2.754114 -0.125826,0.25405 -0.339168,0.457299 -0.460198,0.71364 -0.357275,0.756655 0.209988,1.638772 0.879066,2.141255 0.669093,0.502484 1.488645,0.853658 1.953427,1.549464 0.464781,0.695807 0.253716,1.913752 -0.577387,2.010907 L 74.21945,94.047575 a 6.1496961,6.1496961 0 0 0 -1.595742,3.024024 c 2.504982,2.047774 2.881776,6.215831 0.784613,8.679631 -1.071705,1.25906 -2.595746,2.02413 -3.925902,3.00619 -1.330157,0.98208 -2.560974,2.38054 -2.557619,4.03392 0.0061,2.85652 -0.227625,5.51034 0.842775,8.15872 a 125.68253,125.68253 0 0 0 6.823114,14.23517 c 0.674998,1.20723 1.54737,2.53042 2.914789,2.73828 q -2.59221,-6.31059 -4.667016,-12.81755 c 0.900922,0.003 1.942029,0.0751 2.470148,0.80494 0.43734,0.60438 0.343388,1.42611 0.479277,2.15966 a 6.6900411,6.6900411 0 0 0 0.853156,2.00564 l 8.252369,14.69997 c 0.684119,1.21859 1.468823,2.52664 2.776289,3.02013 0.835929,0.31552 1.803073,0.25609 2.572478,0.71035 0.603083,0.35605 1.009278,0.98809 1.624094,1.32348 1.7384,0.94834 4.155819,-0.87043 5.780414,0.26184 0.464509,0.32374 0.760025,0.83807 1.188045,1.20873 1.500438,1.29937 3.961798,0.43013 5.693898,1.39943 1.11632,0.62469 1.69486,1.87406 2.29028,3.00626 1.49145,2.83605 3.90471,5.61451 7.10105,5.84033 1.00403,0.0709 2.02961,-0.11946 3.01105,0.10396 0.98142,0.22332 1.94755,1.07985 1.79,2.07398 -0.27008,1.70432 0.57199,3.57054 0.34583,5.28124 -0.41194,3.1161 -4.83191,4.48547 -5.21157,7.60566 -0.0832,0.68316 0.047,1.38833 -0.11566,2.05703 -0.19937,0.81958 -0.81487,1.48687 -1.03359,2.30149 -0.41448,1.54377 0.69156,3.08015 1.9066,4.11877 1.21505,1.0386 2.66437,1.9342 3.32865,3.38807 0.70212,1.53673 0.35725,3.32854 0.58559,5.00256 0.4985,3.65458 3.65505,6.36382 6.90358,8.11069 0.98976,0.53225 2.05248,1.04751 2.69308,1.97084 0.83614,1.20512 0.75285,2.79383 1.03205,4.2338 0.68378,3.52654 3.65253,6.43227 3.73683,10.02349 0.06,2.55254 -1.35897,4.86817 -2.20656,7.27662 a 16.969728,16.969728 0 0 0 1.38574,14.0738 c 0.63405,1.07063 1.39237,2.08002 1.84091,3.24069 0.8004,2.07119 0.54069,4.42565 1.27868,6.51989 0.97569,2.76877 3.65667,5.05569 3.40009,7.98012 1.21715,2.52759 3.90488,3.76954 6.60752,4.52185 l 4.84377,1.34831 c 0.92745,0.25818 1.8966,0.51839 2.84101,0.33146 0.94439,-0.18694 1.84567,-0.97112 1.8213,-1.93353 -2.37532,-0.5357 -4.8268,-1.10534 -6.78485,-2.55278 -1.95806,-1.44744 -3.29936,-4.02497 -2.55644,-6.34384 0.34448,-1.07524 1.07737,-2.31691 0.38061,-3.20537 -0.39896,-0.50869 -1.12846,-0.64159 -1.57844,-1.10573 -0.70187,-0.72392 -0.46073,-1.94006 0.0439,-2.81304 0.50458,-0.87296 1.2339,-1.65308 1.43742,-2.64062 a 2.7552364,2.7552364 0 0 0 -1.29144,-2.8665 6.8487717,6.8487717 0 0 0 2.39748,-1.5383 c 0.63048,-0.72 0.92172,-1.83002 0.42576,-2.64852 1.47281,0.18679 3.21164,0.27827 4.17846,-0.84838 0.77206,-0.89969 0.71903,-2.24475 0.41397,-3.39036 -0.30506,-1.14562 -0.82069,-2.25835 -0.83675,-3.44377 a 62.75436,62.75436 0 0 0 10.18139,-0.34524 6.6017766,6.6017766 0 0 0 -3.09547,-3.87671 c 1.53028,-0.25893 2.92438,-2.09097 3.40785,-3.56578 0.48346,-1.4748 0.36017,-3.08123 0.0613,-4.60422 a 2.4705124,2.4705124 0 0 1 -0.0458,-1.20624 c 0.17233,-0.54918 0.7118,-0.88429 1.21092,-1.17093 l 7.59573,-4.3623 a 4.4244336,4.4244336 0 0 0 1.21464,-0.8967 c 0.79581,-0.93477 0.67793,-2.34586 0.27044,-3.5039 -0.40747,-1.15803 -1.06018,-2.247 -1.21714,-3.46456 -0.46945,-3.64141 3.42858,-6.25409 4.74411,-9.68187 0.51626,-1.34518 0.62148,-2.80737 0.72138,-4.24476 0.10731,-1.5438 0.11535,-3.337 -1.07008,-4.33187 -1.13628,-0.95365 -2.91171,-0.74091 -4.1007,-1.62796 -1.09008,-0.81329 -1.46618,-2.39279 -2.65705,-3.04968 -1.08149,-0.59656 -2.43747,-0.21715 -3.64028,-0.49773 -2.11782,-0.494 -3.45057,-2.93484 -5.61346,-3.16084 -1.22034,-0.1275 -2.60149,0.46908 -3.6017,-0.24164 -0.88132,-0.62624 -0.91664,-1.88494 -1.0844,-2.953 a 8.2469069,8.2469069 0 0 0 -6.65615,-6.67759 c -1.25824,-0.20178 -2.62783,-0.12522 -3.69823,-0.81661 -1.08388,-0.70018 -1.58085,-2.01104 -2.43225,-2.98067 -1.37218,-1.56275 -3.5333,-2.11798 -5.55779,-2.5939 l -8.23471,-1.93586 c -1.46182,-0.34366 -3.3461,-0.52589 -4.13054,0.7546 a 5.9185958,5.9185958 0 0 0 -0.48862,1.53673 4.7589701,4.7589701 0 0 1 -4.4754,3.36858 5.2925244,5.2925244 0 0 0 -3.12093,-2.41484 c -0.83502,-0.23271 -1.72879,-0.25858 -2.52517,-0.60094 a 3.5470702,3.5470702 0 0 1 -1.53911,-4.92049 4.4153055,4.4153055 0 0 0 -0.75449,-5.31099 c -1.40041,-1.25724 -3.42613,-1.56101 -5.30388,-1.43522 -0.4918,-1.07308 0.3305,-2.2838 1.21662,-3.06364 0.88613,-0.77983 1.96216,-1.5465 2.1551,-2.71103 0.30356,-1.83182 -2.03373,-3.22313 -3.80838,-2.67694 -1.77464,0.5462 -2.90732,2.26992 -3.65605,3.96907 -0.42962,0.9749 -0.79483,2.0015 -1.472484,2.82354 -0.677638,0.82204 -1.768907,1.41063 -2.801074,1.14682 -1.46128,-0.37347 -2.025644,-2.10958 -2.349057,-3.58274 -0.43391,-1.97651 -0.870339,-3.98044 -0.779422,-6.00198 0.09092,-2.02154 0.772409,-4.09719 2.263074,-5.46569 2.429091,-2.23004 6.155493,-2.01144 9.433763,-1.65571 -0.77452,-0.87264 -0.58311,-2.34332 0.2456,-3.16469 a 3.5980955,3.5980955 0 0 1 3.26121,-0.80119 4.4941849,4.4941849 0 0 1 2.52646,1.51056 c 0.93158,1.13581 1.1965,2.66935 1.90065,3.95857 0.70416,1.28921 2.2875,2.38882 3.58346,1.69716 1.11938,-0.59741 1.29704,-2.14959 1.01844,-3.38743 -0.27859,-1.23786 -0.87029,-2.44154 -0.76937,-3.70634 0.19256,-2.41338 2.69428,-3.86607 4.9019,-4.85999 2.20762,-0.99392 4.73549,-2.33061 5.08523,-4.72627 a 4.3089778,4.3089778 0 0 1 0.26198,-1.37353 2.694344,2.694344 0 0 1 0.98843,-0.92954 c 6.44302,-4.25795 12.99318,-8.56789 20.35724,-10.89452 0.38311,-0.12113 0.4281,0.0137 0.81854,-0.0814 0.54645,-0.31582 0.18437,-1.18952 -0.33955,-1.54146 -0.52391,-0.35197 -1.2242,-0.62188 -1.35713,-1.23888 -0.0977,-0.45355 0.16953,-0.898904 0.23895,-1.357644 0.17057,-1.127242 -1.17794,-2.168014 -2.22519,-1.717348 -0.59153,-0.783414 0.57895,-1.693686 1.52538,-1.954247 a 41.423581,41.423581 0 0 1 8.70252,-1.421619 1.5675038,1.5675038 0 0 1 0.99026,0.16843 c 0.49431,0.342416 0.43116,1.127803 0.0809,1.616551 -0.35033,0.488748 -0.89527,0.795617 -1.33184,1.209173 a 3.6353948,3.6353948 0 0 0 -0.94298,3.656434 c 1.53647,0.78154 3.20688,1.5861 4.90859,1.31077 1.7017,-0.27533 3.2121,-2.187334 2.41223,-3.714349 -0.74486,-1.422015 -2.98227,-1.742757 -3.36703,-3.301251 -0.45049,-1.824718 2.13259,-3.447613 1.55072,-5.23478 -0.25487,-0.782837 -1.03503,-1.243551 -1.63369,-1.808735 a 4.9078699,4.9078699 0 0 1 -1.07402,-5.442112 6.1918465,6.1918465 0 0 1 -5.43049,-1.699392 c -1.29892,-1.310866 -2.33518,-3.378746 -4.17968,-3.32009 -1.69261,0.05381 -3.15052,2.028531 -4.7332,1.426069 -0.38938,-0.148289 -0.79992,-0.449876 -1.17718,-0.273128 a 0.97273992,0.97273992 0 0 0 -0.4391,0.728879 c -0.4022,1.92295 0.28969,4.113913 -0.75836,5.775573 -1.14047,1.808204 -3.77843,2.058884 -5.16104,3.689444 -0.75052,0.885122 -1.0413,2.077826 -1.73116,3.010986 -0.68987,0.933176 -2.15408,1.52647 -2.98198,0.713246 a 4.1100966,4.1100966 0 0 0 -1.11657,-4.997759 10.967009,10.967009 0 0 0 -2.46621,-1.199581 14.626406,14.626406 0 0 1 -2.75517,-1.535545 2.7138369,2.7138369 0 0 1 -1.01145,-1.082239 2.4662797,2.4662797 0 0 1 0.0692,-1.711429 6.9978522,6.9978522 0 0 1 5.56883,-4.615698 c 1.10231,-0.149959 2.38525,-0.09712 3.11473,-0.937006 0.38598,-0.444399 0.58852,-1.116283 1.14878,-1.296771 a 1.694461,1.694461 0 0 1 1.06061,0.130606 l 4.11439,1.448189 a 2.8877032,2.8877032 0 0 0 1.46568,0.242413 0.99371472,0.99371472 0 0 0 0.85924,-1.044306 c -0.13144,-0.683262 -1.18281,-1.01114 -1.08714,-1.700312 a 1.135149,1.135149 0 0 1 0.34434,-0.578825 14.709627,14.709627 0 0 1 11.66658,-4.607083 c 0.51931,0.852886 -0.30198,1.862853 -0.98536,2.59094 -0.68338,0.728086 -1.23253,2.028997 -0.4061,2.589441 a 2.2659609,2.2659609 0 0 0 1.09549,0.246715 9.5651908,9.5651908 0 0 1 2.91583,0.884416 q 2.13262,0.928087 4.18338,2.030917 c -0.12081,-0.901443 -0.23601,-1.851105 0.10564,-2.69398 0.34168,-0.842875 1.31275,-1.503997 2.16096,-1.175745 0.81743,0.316348 1.23666,1.398722 2.10754,1.497885 1.16171,0.132276 1.62003,-1.583949 1.13477,-2.647711 -0.48525,-1.063764 -1.44587,-1.954488 -1.52606,-3.120948 -0.054,-0.78694 0.24537,-1.762916 -0.38323,-2.239433 A 1.7109499,1.7109499 0 0 0 161.8638,66.48778 l -15.69551,-2.888262 c -0.93203,-0.171513 -2.27866,-0.04007 -2.31999,0.906723 -0.0231,0.528487 0.449,1.051318 0.23992,1.537222 -0.22316,0.518605 -0.95626,0.471191 -1.49021,0.654619 -0.82849,0.284608 -1.24423,1.268383 -1.16467,2.140778 a 5.9570837,5.9570837 0 0 0 0.98308,2.412528 c -1.0209,-0.426953 -2.56671,-0.505434 -3.58761,-0.932385 z"
       id="path6" />
    <path
       inkscape:connector-curvature="0"
       style="fill:#3f3d56;stroke-width:0.40158525"
       d="m 126.30528,56.995486 a 5.0825635,5.0825635 0 0 0 -5.58302,1.672009 c -0.25844,0.340276 -0.47549,0.809354 -0.25914,1.177813 0.3102,0.528238 1.10056,0.319594 1.68327,0.130637 a 4.2364153,4.2364153 0 0 1 2.65878,-0.06343 c 0.54717,0.187862 1.03668,0.519881 1.58624,0.700642 a 1.5974098,1.5974098 0 0 0 1.62871,-0.238008 c 0.37716,-0.384663 0.40082,-0.982679 0.40149,-1.521406 a 1.223562,1.223562 0 0 0 -0.31179,-1.005634 1.5986427,1.5986427 0 0 0 -0.72106,-0.213274 2.4836162,2.4836162 0 0 1 -1.45354,-0.849292"
       id="path8" />
    <path
       inkscape:connector-curvature="0"
       style="fill:#3f3d56;stroke-width:0.40158525"
       d="m 131.96475,55.419746 a 1.2929279,1.2929279 0 0 0 -1.24965,1.820941 5.2405511,5.2405511 0 0 0 2.08945,0.136238 1.78591,1.78591 0 0 0 1.46043,-1.338985 3.3621281,3.3621281 0 0 1 -2.38055,-0.454651"
       id="path10" />
    <path
       inkscape:connector-curvature="0"
       style="fill:#3f3d56;stroke-width:0.40158525"
       d="m 150.95297,52.788118 a 24.036195,24.036195 0 0 0 -5.35795,1.820105 4.0256473,4.0256473 0 0 1 2.57112,4.043338 2.1055437,2.1055437 0 0 0 0.0244,0.99969 c 0.19678,0.477054 0.76699,0.656058 1.26829,0.778505 a 8.3620374,8.3620374 0 0 0 2.78178,0.355061 2.8337423,2.8337423 0 0 0 2.3026,-1.407082 10.02852,10.02852 0 0 1 0.47884,-1.131913 c 1.20163,-1.830044 4.77132,0.382752 6.06145,-1.386008 0.45446,-0.623071 0.41289,-1.560961 1.00535,-2.054685 a 2.2585476,2.2585476 0 0 1 1.03348,-0.39441 72.578928,72.578928 0 0 1 7.85035,-1.118058 c 1.24862,-0.108659 2.87612,-0.556998 2.8865,-1.810281 a 21.745336,21.745336 0 0 0 -13.87125,1.866062 c -1.54627,0.774477 -3.59137,2.403612 -5.08082,1.376843 -0.55768,-0.384441 -0.53007,-1.419644 -1.29762,-1.851938 -0.78475,-0.441969 -1.82352,-0.262211 -2.65653,-0.08523 z"
       id="path12" />
    <path
       inkscape:connector-curvature="0"
       style="fill:#3f3d56;stroke-width:0.40158525"
       d="m 166.33332,55.664288 2.20767,0.424202 a 2.8608011,2.8608011 0 0 0 -2.97709,3.100279 c 2.06739,0.690645 4.32135,0.01855 6.49912,0.110374 2.17779,0.09181 4.71165,1.647431 4.33988,3.79521 -0.11247,0.649416 -0.48756,1.298398 -0.29248,1.927931 0.13676,0.441242 0.52589,0.754329 0.74553,1.160709 0.45771,0.846818 0.0918,1.917919 -0.48606,2.687706 -0.57793,0.769786 -1.35477,1.38399 -1.86207,2.20206 -1.26173,2.03466 -0.54488,4.665073 0.20673,6.938152 a 6.1166858,6.1166858 0 0 0 1.17614,2.3488 c 1.11354,1.183962 2.92821,1.286929 4.55336,1.310653 1.18286,0.0173 2.53787,-0.04113 3.28589,-0.957628 0.97657,-1.196499 0.2937,-3.063267 0.93665,-4.467506 0.58393,-1.275335 2.07168,-1.822466 3.41958,-2.210509 2.46941,-0.710903 4.98595,-1.315286 7.3205,-2.389091 2.89893,-1.333393 5.60818,-3.411339 8.79442,-3.582977 0.8939,-0.04815 1.80995,0.05734 2.671,-0.187568 0.86104,-0.244915 1.67898,-0.989354 1.61379,-1.88217 -0.0557,-0.762847 -0.7011,-1.32302 -1.20542,-1.898089 -0.50431,-0.57507 -0.90035,-1.459361 -0.43686,-2.067795 l 8.35159,-1.559925 c -0.592,-1.61335 -1.05317,-3.738161 0.30717,-4.78831 0.49081,-0.3789 1.14799,-0.530342 1.56589,-0.98841 0.71226,-0.780723 0.3541,-2.125592 -0.46811,-2.789553 -0.82219,-0.66396 -1.93389,-0.818092 -2.98708,-0.905574 -3.66198,-0.304128 -7.34499,-0.103165 -11.01407,0.09796 q -10.75838,0.589712 -21.51678,1.179421 c -1.44382,0.07914 -3.11082,-0.04177 -4.43505,0.450814 -1.12106,0.41702 -1.91815,1.182501 -3.2003,1.451446 -2.36694,0.496504 -4.9717,0.160526 -7.11354,1.489392 z"
       id="path14" />
    <path
       inkscape:connector-curvature="0"
       style="fill:#3f3d56;stroke-width:0.40158525"
       d="m 205.88324,73.114477 a 0.88833071,0.88833071 0 0 0 -0.64259,0.145739 0.81129461,0.81129461 0 0 0 -0.2092,0.495513 3.2723176,3.2723176 0 0 0 0.47533,2.342182 2.2935137,2.2935137 0 0 0 2.09949,1.006568 c 0.99407,-0.126766 1.72665,-0.974831 2.64053,-1.388661 1.40854,-0.637239 7.39032,-1.630646 3.25244,-3.86617 -1.42599,-0.770414 -2.34743,-0.09032 -3.47136,0.41705 a 7.8987285,7.8987285 0 0 1 -4.14464,0.847779 z"
       id="path16" />
    <path
       inkscape:connector-curvature="0"
       style="fill:#3f3d56;stroke-width:0.40158525"
       d="m 242.12624,54.402266 a 2.3625743,2.3625743 0 0 0 -1.1495,1.000598 1.0095854,1.0095854 0 0 0 0.37863,1.339286 1.5068082,1.5068082 0 0 0 0.56363,0.08941 l 1.96463,0.05869 c 0.83461,0.02494 1.87713,0.202684 2.1014,1.00698 0.16653,0.597213 -0.20619,1.364638 0.24353,1.791418 a 1.266881,1.266881 0 0 0 0.66832,0.260666 4.5544308,4.5544308 0 0 0 1.97953,0.06388 c 1.42945,-0.383418 0.67835,-1.255862 1.12857,-2.032708 0.68885,-1.188629 0.5696,-0.469097 1.78337,-1.150326 0.89638,-0.503094 2.05471,-1.415717 1.30652,-2.697966 -1.30106,-2.229802 -9.04873,-0.687851 -10.96863,0.270066 z"
       id="path18" />
    <path
       inkscape:connector-curvature="0"
       style="fill:#3f3d56;stroke-width:0.40158525"
       d="m 280.90287,53.281229 -1.1408,0.152233 c -2.57252,0.34329 -5.15962,0.689742 -7.63731,1.462264 a 12.711118,12.711118 0 0 0 3.34474,0.820732 10.274386,10.274386 0 0 1 1.87357,0.266328 c 1.09437,0.325781 2.19708,1.167053 3.25435,0.736105 0.65556,-0.267208 0.86948,-0.949774 1.4125,-1.311518 0.37498,-0.249786 1.79717,-0.654077 1.95615,-0.906193 1.28532,-2.038189 -2.0752,-1.351792 -3.0632,-1.219951 z"
       id="path20" />
    <path
       inkscape:connector-curvature="0"
       style="fill:#3f3d56;stroke-width:0.40158525"
       d="m 285.91224,58.466096 a 21.39513,21.39513 0 0 0 -4.2099,3.083047 c -0.536,0.50386 -1.08348,1.130526 -1.03487,1.86456 0.0647,0.975602 1.10385,1.541501 2.00421,1.922702 l 3.64689,1.544035 c 0.44242,-0.623565 0.0375,-1.484335 -0.41973,-2.097119 -0.45724,-0.612783 -1.0006,-1.321757 -0.79858,-2.059156 0.23052,-0.841502 1.25656,-1.128259 2.11694,-1.273227 1.40184,-0.2362 5.1834,-0.217257 4.72903,-2.476451 -0.53539,-2.662016 -4.62681,-1.294948 -6.03399,-0.508391 z"
       id="path22" />
    <path
       inkscape:connector-curvature="0"
       style="fill:#3f3d56;stroke-width:0.40158525"
       d="m 285.17888,209.11164 c -0.34718,1.00512 -0.38012,2.18916 0.22043,3.06672 0.67389,0.98472 2.02255,1.35179 3.18936,1.10206 a 5.7454804,5.7454804 0 0 0 2.96111,-1.90384 10.197105,10.197105 0 0 0 1.70319,-2.61188 20.387367,20.387367 0 0 0 1.26242,-4.61916 l 1.13231,-5.94508 c 0.25303,-1.32868 0.24323,-5.4022 -2.19884,-4.07501 -0.66714,0.36257 -2.21179,3.22523 -2.91094,4.03701 -1.26009,1.46305 -1.42681,2.88267 -2.09016,4.65513 -0.83088,2.2201 -2.50079,4.0704 -3.26888,6.29405 z"
       id="path24" />
    <path
       inkscape:connector-curvature="0"
       style="fill:#3f3d56;stroke-width:0.40158525"
       d="m 414.16087,239.53468 a 17.803199,17.803199 0 0 1 -2.32056,-1.10471 19.560162,19.560162 0 0 0 -1.17634,6.41126 l 5.46794,-3.09411 c 0.82256,-0.46545 1.75484,-1.11219 1.73713,-2.05714 a 0.65079703,0.65079703 0 0 0 -0.30227,-0.59175 0.73715795,0.73715795 0 0 0 -0.38331,-0.0449 c -0.81081,0.0676 -1.5501,0.46653 -2.31495,0.74396 -0.76487,0.27743 -1.65923,0.42407 -2.361,0.0121"
       id="path26" />
    <path
       inkscape:connector-curvature="0"
       style="fill:#3f3d56;stroke-width:0.40158525"
       d="m 443.0054,241.37161 a 11.835521,11.835521 0 0 0 -1.75353,0.62928 c -1.25479,0.63845 -2.1084,1.8511 -3.23758,2.69201 -1.08054,0.80468 -2.38128,1.24649 -3.65824,1.67606 -0.37561,0.33204 -0.20301,1.00075 0.20472,1.29242 a 2.5361555,2.5361555 0 0 0 1.44419,0.32462 c 1.32659,0.0293 2.72423,0.042 3.88621,-0.5987 a 12.255728,12.255728 0 0 0 1.82964,-1.45219 c 1.3586,-1.13357 2.99011,-1.88148 4.60518,-2.60427 a 5.2856652,5.2856652 0 0 0 1.60509,-0.95968 c 1.01485,-0.99984 1.0862,-2.5423 -0.37713,-2.88261 -1.18238,-0.27498 -3.42271,1.51885 -4.54855,1.88306 z"
       id="path28" />
    <path
       inkscape:connector-curvature="0"
       style="fill:#3f3d56;stroke-width:0.40158525"
       d="m 455.75019,233.04659 a 4.5614183,4.5614183 0 0 0 -1.39564,-3.73741 c -0.0152,1.37648 -0.0568,2.8429 -0.83092,3.98115 -0.55161,0.81102 -1.41647,1.35887 -2.02081,2.13139 -0.60435,0.77253 -0.8726,1.99705 -0.16373,2.67491 a 2.6564384,2.6564384 0 0 0 1.5743,0.54224 c 1.41108,0.16609 3.04437,0.25868 4.03404,-0.76077 0.5402,-0.55643 0.80297,-1.38053 1.46181,-1.78963 a 1.7784284,1.7784284 0 0 0 0.64134,-0.45893 c 0.27203,-0.43244 -0.16024,-1.00236 -0.64676,-1.15818 -0.48656,-0.15582 -1.02277,-0.0826 -1.51173,-0.23055 -0.48897,-0.14799 -0.93757,-0.69783 -0.68671,-1.14286"
       id="path30" />
    <path
       inkscape:connector-curvature="0"
       style="fill:#3f3d56;stroke-width:0.40158525"
       d="m 433.09876,182.57891 a 6.3428987,6.3428987 0 0 1 -2.26329,0.13341 c -1.2562,-0.23095 -2.23394,-1.17769 -3.24814,-1.95411 a 14.327358,14.327358 0 0 0 -8.37129,-2.92487 c -2.75587,-0.0521 -5.53752,0.69475 -8.24421,0.17372 0.17683,0.98359 1.01852,1.72131 1.91654,2.15978 0.89802,0.43848 1.88913,0.65916 2.7915,1.08871 a 6.6650063,6.6650063 0 0 1 3.22844,3.35865 c 0.29063,0.67837 0.47346,1.4166 0.91369,2.00894 0.89978,1.2107 2.60532,1.47654 4.11049,1.37754 1.96248,-0.12901 4.01209,-0.6935 5.83782,0.0376 1.39667,0.55933 2.39629,1.78176 3.56245,2.73229 1.16617,0.95054 2.80874,1.656 4.14782,0.97016 a 6.8568918,6.8568918 0 0 1 -4.74448,-6.59802 c 1.31338,0.12081 5.09619,0.0741 4.89247,-2.15757 -0.17268,-1.89126 -3.40204,-0.61043 -4.52981,-0.4063 z"
       id="path32" />
    <path
       inkscape:connector-curvature="0"
       style="fill:#3f3d56;stroke-width:0.40158525"
       d="m 415.91765,197.96649 c 0.23321,-1.27899 1.50869,-2.40843 1.11136,-3.6463 -0.27477,-0.85607 -1.26733,-1.27872 -2.16616,-1.29983 -0.89883,-0.0211 -1.78184,0.24664 -2.68059,0.27185 a 13.063533,13.063533 0 0 0 -1.75523,0.0249 c -1.78403,0.29326 -2.88366,2.16317 -4.56493,2.82806 -1.0223,0.40428 -2.17078,0.327 -3.234,0.60647 -2.41349,0.63443 -3.94058,2.91505 -5.62771,4.75382 a 20.083488,20.083488 0 0 1 -10.19385,5.94487 c -1.37226,0.31775 -2.84743,0.52103 -3.93818,1.41227 -1.44442,1.18022 -1.79998,3.2035 -2.12134,5.04089 a 83.261795,83.261795 0 0 1 -4.0532,14.87908 l 5.73079,0.73169 c 1.08956,0.13918 2.21855,0.27524 3.26847,-0.0475 a 9.488492,9.488492 0 0 0 2.14979,-1.14512 21.461712,21.461712 0 0 1 8.38487,-3.02663 c 1.50073,-0.20605 3.07414,-0.24379 4.48247,0.31403 1.40832,0.55782 2.61653,1.82285 2.73456,3.33302 a 3.5206378,3.5206378 0 0 1 3.51875,0.85578 6.1163726,6.1163726 0 0 1 1.67994,3.35366 c 0.15102,0.78404 0.30199,1.72345 1.02952,2.05237 0.59355,0.26834 1.27442,-0.0206 1.92372,-0.0727 2.20331,-0.17629 4.03161,2.39279 6.19725,1.95039 2.32256,-0.47446 2.89278,-3.95284 5.1586,-4.6496 1.30138,-0.40019 3.12674,0.0865 3.74992,-1.12407 0.54926,-1.06696 -0.54659,-2.2982 -0.43359,-3.49291 0.13918,-1.47107 1.87436,-2.09546 3.21208,-2.72315 4.61181,-2.16396 6.80025,-8.37104 4.5655,-12.94893 -1.3241,-2.71241 -3.92942,-4.84755 -4.41057,-7.82728 -0.37017,-2.29255 0.53356,-4.96592 -0.92813,-6.77045 -0.74359,-0.91798 -2.00251,-1.42468 -2.44498,-2.52004 -0.27851,-0.68947 -0.16658,-1.47175 -0.31645,-2.2001 -0.14981,-0.72834 -0.7853,-1.49019 -1.50454,-1.30141 -2.0878,0.54801 -2.75404,6.99754 -3.87181,8.5646 -1.69918,2.38204 -5.18741,0.81298 -4.65233,-2.12181 z"
       id="path34" />
    <path
       inkscape:connector-curvature="0"
       style="fill:#3f3d56;stroke-width:0.40158525"
       d="m 377.32761,185.01577 c -0.71348,-0.20006 -1.49255,-0.39714 -2.17615,-0.11126 -0.68362,0.2859 -1.08285,1.28957 -0.53418,1.78761 4.29233,-0.16722 8.61094,-0.33325 12.86679,0.24966 4.90342,0.6716 9.75615,2.33522 14.68109,1.84579 a 74.716388,74.716388 0 0 0 -8.56424,-1.98731 l -4.82139,-0.92101 a 37.279312,37.279312 0 0 0 -3.91512,-0.60497 c -2.75058,-0.22717 -4.83243,0.49977 -7.5368,-0.25853 z"
       id="path36" />
    <path
       inkscape:connector-curvature="0"
       style="fill:#3f3d56;stroke-width:0.40158525"
       d="m 381.6247,170.06638 c -0.35633,-0.0298 -0.79766,-0.0554 -0.982,0.251 -0.17614,0.29273 0.0255,0.67948 -0.0692,1.00773 -0.12932,0.44844 -0.71669,0.563 -1.17941,0.50196 -0.46272,-0.061 -0.96317,-0.20728 -1.37311,0.0158 a 1.1638262,1.1638262 0 0 0 -0.44998,1.32198 3.4032625,3.4032625 0 0 0 0.79364,1.26513 12.924982,12.924982 0 0 0 2.05923,2.06549 c 1.47525,1.08896 3.47387,1.61372 4.40303,3.19449 a 2.119567,2.119567 0 0 0 0.58805,0.79145 c 0.44606,0.28254 1.02778,0.0676 1.50803,-0.15184 l 1.68344,-0.7692 a 1.9122084,1.9122084 0 0 0 0.78698,-0.53523 c 0.38461,-0.52185 0.14829,-1.26383 -0.17444,-1.82601 -0.32282,-0.56217 -0.73603,-1.14398 -0.66675,-1.78853 0.12355,-1.14922 1.60114,-1.5888 2.20872,-2.57208 0.61242,-0.99111 0.21372,-2.26813 0.28431,-3.43115 0.0826,-1.36005 0.93722,-3.12919 -0.43778,-4.14536 -1.16857,-0.86363 -2.28549,-0.0657 -3.12447,0.88781 -1.76926,2.01065 -2.60584,4.18813 -5.85825,3.91654 z"
       id="path38" />
    <path
       inkscape:connector-curvature="0"
       style="fill:#3f3d56;stroke-width:0.40158525"
       d="m 391.84328,149.74498 c 0.57473,1.10045 1.77288,1.75716 2.39961,2.82884 0.67933,1.16162 0.60192,2.66246 1.33889,3.78838 0.75609,1.15517 2.2777,1.76846 2.70173,3.08234 0.46295,1.43443 -0.58742,3.1779 0.24986,4.43124 a 1.8601188,1.8601188 0 0 0 2.72856,0.2507 2.0014648,2.0014648 0 0 0 -0.0826,-2.79247 c -0.49575,-0.45199 -1.20758,-0.64731 -1.62149,-1.17525 a 2.4661351,2.4661351 0 0 1 -0.41996,-1.02254 6.6942135,6.6942135 0 0 1 0.10534,-3.20833 1.427736,1.427736 0 0 0 0.0807,-0.8392 c -0.18633,-0.54163 -0.91973,-0.58006 -1.43446,-0.83133 -1.16908,-0.57068 -1.14071,-2.22057 -0.93646,-3.50539 -0.13599,0.85537 -3.18291,-0.59946 -3.50198,-1.08399 -0.63382,-0.96251 -0.28885,-2.81923 -0.41433,-3.88287 -1.36837,0.65938 -1.89607,2.61438 -1.19337,3.95987 z"
       id="path40" />
    <path
       inkscape:connector-curvature="0"
       style="fill:#3f3d56;stroke-width:0.40158525"
       d="m 361.14738,166.67655 c -0.56238,-0.62955 -1.40945,-1.28817 -2.1634,-0.90848 -0.57524,0.28966 -0.73347,1.08555 -0.50801,1.68885 a 3.7174065,3.7174065 0 0 0 1.22681,1.46257 c 1.57123,1.29584 3.26315,2.46539 4.63389,3.97172 2.45301,2.69573 3.75248,6.33315 6.42025,8.81654 a 3.600975,3.600975 0 0 0 2.02157,1.09408 c 0.77724,0.0722 1.65002,-0.42522 1.73938,-1.20066 0.0736,-0.63878 -0.37173,-1.21053 -0.80691,-1.68388 -1.0363,-1.12723 -2.17081,-2.16478 -3.1492,-3.3426 a 2.8087075,2.8087075 0 0 1 -0.80497,-1.68115 c -0.005,-0.63418 0.57335,-1.29796 1.18779,-1.14091 -0.74728,-0.191 -1.30149,-1.43597 -2.39827,-1.67 -0.91658,-0.19557 -1.13832,0.37186 -2.22916,-0.0959 -2.08052,-0.89232 -3.71281,-3.67905 -5.16977,-5.3101 z"
       id="path42" />
    <path
       inkscape:connector-curvature="0"
       style="fill:#3f3d56;stroke-width:0.40158525"
       d="m 410.03319,105.37595 a 17.227723,17.227723 0 0 1 -1.75766,-0.62785 c -1.54475,-0.46369 -3.58859,0.67173 -3.38269,2.27136 0.13676,1.06283 1.12594,1.77938 1.6722,2.70128 0.81009,1.36716 0.59413,3.10119 0.16843,4.63226 a 3.6212429,3.6212429 0 0 1 -0.58448,1.31798 4.4639335,4.4639335 0 0 1 -1.3842,0.99574 18.514314,18.514314 0 0 0 -5.41736,4.60233 1.326396,1.326396 0 0 0 -0.32715,0.61669 c -0.0736,0.5401 0.46922,0.93353 0.77615,1.38398 0.68179,1.00064 0.18901,2.34712 0.2564,3.55606 a 1.0054089,1.0054089 0 0 0 0.42365,0.88212 c 0.41093,0.20874 0.89789,-0.14586 1.12062,-0.54937 0.73916,-1.33916 0.18234,-3.48873 1.56899,-4.1344 0.2623,-0.12219 0.5803,-0.17364 0.75527,-0.40406 0.27762,-0.36553 0.009,-0.90675 0.15041,-1.34365 0.21124,-0.65598 1.10842,-0.68544 1.79696,-0.65634 a 10.199282,10.199282 0 0 0 3.5035,-0.46642 2.3321061,2.3321061 0 0 0 1.15978,-0.6716 c 0.41451,-0.51733 0.37778,-1.25288 0.29496,-1.91059 a 25.899137,25.899137 0 0 0 -3.05989,-9.33672 c 1.21806,0.15559 2.54327,0.29034 3.59437,-0.34445 0.58855,-0.35547 1.29438,-1.41846 1.00247,-2.14198 -0.46167,-1.14415 -1.29559,-0.18109 -2.33079,-0.37237 z"
       id="path44" />
    <path
       inkscape:connector-curvature="0"
       style="fill:#3f3d56;stroke-width:0.40158525"
       d="m 253.87718,123.40977 c 0.14571,0.7818 0.28906,1.60502 0.0328,2.35789 -0.25622,0.75288 -1.06222,1.38196 -1.8233,1.15127 -0.59067,-0.17904 -0.93186,-0.77294 -1.35129,-1.22573 -2.33245,-2.51805 -7.59485,-1.06019 -9.03575,-4.17545 -0.58807,-1.27141 -0.18842,-2.79462 -0.58953,-4.13677 a 3.682079,3.682079 0 0 0 -3.72883,-2.53313 7.6621867,7.6621867 0 0 0 -2.14576,0.64052 54.104194,54.104194 0 0 1 -14.21661,3.55577 11.680778,11.680778 0 0 0 -2.73165,0.49702 c -2.00303,0.72618 -3.37163,2.58317 -4.34562,4.47811 -0.97397,1.89495 -1.69302,3.94643 -2.99883,5.62996 -1.37236,1.76935 -3.29545,3.00833 -5.08931,4.34849 a 5.1925417,5.1925417 0 0 0 -1.6789,1.75962 c -0.38891,0.79841 -0.36696,1.72707 -0.33679,2.61465 l 0.36664,10.78003 c 0.0472,1.38659 0.1064,2.82272 0.72695,4.06357 0.77495,1.54949 2.30583,2.56434 3.36786,3.93313 a 7.7037347,7.7037347 0 0 1 1.5982,4.91965 c -0.0226,0.71364 -0.0935,1.55772 0.46227,2.00591 a 2.0327242,2.0327242 0 0 0 1.13663,0.32689 l 14.58222,1.19348 c 2.56512,0.20994 5.40787,0.55514 7.08259,2.50941 0.79038,0.92234 1.42532,2.2487 2.63595,2.34768 0.51928,0.0425 1.02456,-0.17072 1.54395,-0.21186 1.3104,-0.10381 2.46156,0.89079 3.18806,1.98628 a 8.8121662,8.8121662 0 0 1 1.41539,5.65449 c -0.11914,1.24966 -0.50656,2.46454 -0.5901,3.71709 -0.31783,4.76591 3.72236,8.90658 3.80066,13.68246 0.046,2.80921 -1.2875,5.43396 -2.58768,7.92461 2.09842,3.17892 0.38013,7.41202 1.21556,11.12833 0.79258,3.52577 3.73232,6.28595 4.46486,9.82468 0.33536,1.62001 0.35476,3.61363 1.7833,4.44801 a 4.0649986,4.0649986 0 0 0 2.01785,0.40404 26.601767,26.601767 0 0 0 12.11386,-2.75786 c 1.76642,-0.87657 3.59709,-2.18514 3.90558,-4.13281 0.24877,-1.57069 -0.54775,-3.32756 0.26287,-4.69571 0.95538,-1.61248 3.40282,-1.48465 4.8085,-2.72441 2.28046,-2.01122 0.5022,-5.84695 1.42616,-8.7438 0.83054,-2.60391 3.68951,-3.98728 5.10668,-6.32433 a 11.238617,11.238617 0 0 0 1.18668,-3.21623 45.878507,45.878507 0 0 0 1.20739,-8.20292 49.16865,49.16865 0 0 1 0.37112,-5.02441 c 1.52794,-9.49258 10.91238,-15.84897 13.95922,-24.96817 0.29097,-0.87088 0.42762,-2.03089 -0.34714,-2.52369 a 2.218855,2.218855 0 0 0 -1.47552,-0.15443 l -6.72207,0.84748 c -0.83493,0.10519 -1.71995,0.20365 -2.48671,-0.14312 -0.76678,-0.34681 -1.31631,-1.3168 -0.9096,-2.05353 1.1417,-2.06805 -1.20682,-4.68139 -2.25018,-6.80074 a 100.35379,100.35379 0 0 0 -9.99328,-16.20666 1.6473269,1.6473269 0 0 1 -0.43813,-0.95125 l 1.9078,0.0634 c -0.644,-2.31087 -1.70678,-4.83966 -3.95186,-5.68499 -1.26509,-0.47633 -2.66606,-0.31163 -4.01584,-0.23787 -3.86614,0.2112 -8.01092,-0.37251 -11.83736,-0.96415 z"
       id="path46" />
    <path
       inkscape:connector-curvature="0"
       style="fill:#3f3d56;stroke-width:0.40158525"
       d="m 265.71769,71.333896 c 1.01168,1.074349 2.14534,2.213422 3.60911,2.400676 2.58541,0.330775 4.44429,-2.342784 5.62781,-4.665054 a 2.2794702,2.2794702 0 0 0 2.37864,2.108807 4.6956442,4.6956442 0 0 0 1.78907,-0.699449 35.24532,35.24532 0 0 1 16.69747,-4.316434 1.8032302,1.8032302 0 0 1 1.37704,-1.982378 c 1.18686,-0.235297 2.25595,0.790825 2.82848,1.856746 0.57253,1.06592 0.92954,2.301408 1.83917,3.099262 0.90962,0.797854 2.67073,0.763096 3.03002,-0.392281 0.34494,-1.109214 -0.81063,-2.055141 -1.77067,-2.709094 -0.96004,-0.653954 -1.97196,-1.864323 -1.32543,-2.829393 4.90467,-1.08569 9.83979,-2.175492 14.85855,-2.391287 a 6.2220978,6.2220978 0 0 0 2.50115,-0.430862 c 0.76538,-0.375589 1.37371,-1.228168 1.1679,-2.055518 a 5.6638743,5.6638743 0 0 1 -5.91061,-2.229424 c 6.96389,-0.574669 14.37072,-1.064494 20.54233,2.212305 0.7406,1.589876 -3.03398,2.912642 -2.02406,4.346625 0.32209,0.457351 0.96749,0.510987 1.52678,0.521367 4.28872,0.07962 8.6022,0.157707 12.84251,-0.489786 1.54959,-0.236617 3.11476,-0.570652 4.67054,-0.37877 2.59131,0.319585 4.80767,2.04859 7.35703,2.612312 1.03762,0.229445 2.20107,0.237216 3.07575,-0.366298 0.87467,-0.603515 1.25064,-1.977723 0.53387,-2.76228 2.40033,-2.352535 6.38414,-1.769474 9.55078,-0.643196 3.16662,1.126278 6.16652,2.942588 9.51809,3.193639 2.40338,0.180028 4.84015,-0.466445 7.21498,-0.05554 1.49235,0.258219 2.88125,0.922122 4.33981,1.330009 2.75862,0.771446 5.67676,0.608599 8.54098,0.645725 a 59.84496,59.84496 0 0 1 21.32663,4.237736 6.3407382,6.3407382 0 0 1 2.37083,1.40073 c 0.63182,0.676611 0.95405,1.728022 0.52937,2.550637 l -7.01677,-1.025248 c 0.66112,1.301463 2.37147,1.523245 3.76044,1.972222 1.38901,0.448977 2.82913,1.982863 1.9944,3.180394 -1.50495,-0.479185 -2.86877,1.025473 -3.62898,2.409892 -0.76024,1.384418 -1.68669,3.042404 -3.26384,3.126734 -1.4123,0.07559 -3.12034,-1.12703 -4.04093,-0.05327 a 27.560211,27.560211 0 0 1 3.24703,5.191143 c 0.90947,1.894733 1.55727,4.282146 0.32802,5.986866 a 1.5517255,1.5517255 0 0 1 -0.82959,0.643351 c -1.00394,0.25414 -1.65624,-0.974005 -2.3762,-1.718381 -0.90726,-0.938047 -2.27928,-1.203723 -3.50785,-1.643658 -1.22859,-0.43992 -2.5228,-1.305326 -2.61892,-2.606766 -0.0598,-0.809717 0.3677,-1.562426 0.6826,-2.310793 a 8.9029687,8.9029687 0 0 0 0.67644,-3.993202 c -0.0689,-1.098434 -0.37693,-2.241051 -1.1658,-3.008528 -0.78886,-0.767477 -2.15084,-1.010948 -2.99772,-0.308008 -0.39516,0.327982 -0.71185,0.852626 -1.22502,0.872236 -0.9067,0.03476 -1.60287,-1.546094 -2.33236,-1.006485 a 2.4786203,2.4786203 0 0 1 -0.3368,1.657698 c -2.17685,1.893231 -5.52099,1.092287 -8.32736,1.761076 a 15.630245,15.630245 0 0 0 -3.79926,1.659186 2.4445178,2.4445178 0 0 0 -1.08596,0.911516 c -0.3503,0.680765 0.036,1.552621 0.65337,2.005261 a 5.1871483,5.1871483 0 0 0 2.15436,0.735329 c 3.42129,0.647965 6.89251,1.651036 9.59363,3.848571 2.70113,2.19752 4.47245,5.830168 3.6177,9.205766 l -6.74698,-6.446902 q 0.3844,4.060365 0.43628,8.143102 a 3.661028,3.661028 0 0 1 -0.21388,1.5663 c -0.48099,1.06237 -1.78462,1.41987 -2.92697,1.6544 a 2.2927346,2.2927346 0 0 0 -1.76006,2.9375 c 0.40587,1.32294 1.41787,2.35437 2.3445,3.38212 0.92663,1.02775 1.83853,2.19582 1.95983,3.5743 0.12128,1.37847 -0.91869,2.93224 -2.29916,2.83639 -1.04651,-0.0727 -1.82292,-1.00949 -2.26929,-1.95881 -0.44637,-0.94933 -0.71197,-2.00684 -1.38265,-2.81346 -2.03,-2.44146 -6.58962,-1.39544 -8.40817,-3.99823 a 4.1127391,4.1127391 0 0 0 -0.85047,3.91385 c 0.84602,-0.52963 2.00421,-0.0375 2.63985,0.73202 0.63564,0.76956 0.93551,1.75618 1.43469,2.62052 0.6736,1.16633 1.74559,2.20028 1.83962,3.54387 a 11.583856,11.583856 0 0 0 0.0257,1.52415 c 0.16702,0.81409 0.85511,1.39864 1.33219,2.0791 1.11011,1.58334 1.05525,3.75846 0.33974,5.55495 -0.7155,1.7965 -2.00098,3.29763 -3.27421,4.75303 -2.22387,2.54203 -4.49314,5.06915 -7.12962,7.18017 -0.7523,0.60239 -1.55519,1.1947 -2.02374,2.03685 -0.46854,0.84215 -0.49257,2.02425 0.22745,2.66487 -0.51519,0.0258 -1.43911,0.27918 -1.9543,0.30498 a 45.435876,45.435876 0 0 1 -0.11778,-6.2154 c -2.03308,-0.9762 -4.22211,1.63812 -3.95976,3.87811 0.26235,2.23999 1.8825,4.03754 3.03598,5.97551 0.84354,1.4172 1.47042,3.0697 1.18881,4.69472 -0.28162,1.625 -1.73218,3.1241 -3.37519,2.98078 -2.61338,-0.22796 -3.70652,-3.97974 -6.29444,-4.40911 a 1.0574583,1.0574583 0 0 0 -0.68109,0.0677 c -0.38415,0.21084 -0.45094,0.72486 -0.47251,1.16255 -0.10594,2.14813 -0.19754,4.38167 0.64102,6.3622 1.22675,2.89741 4.39592,5.33089 3.73112,8.40628 -3.58127,-1.66473 -5.44328,-5.6809 -6.28868,-9.53862 -0.84542,-3.85774 -0.98631,-7.90762 -2.50178,-11.55455 -1.15075,1.47493 -3.56948,0.25565 -4.62089,-1.29166 -0.99678,-1.46694 -1.61049,-3.16388 -2.57758,-4.65056 -0.96709,-1.48669 -2.44858,-2.81793 -4.22026,-2.89967 -1.85752,-0.0858 -3.4685,1.18897 -4.88522,2.39339 -1.16497,0.99038 -2.36104,2.01975 -3.04201,3.3888 -0.99094,1.99222 -0.73171,4.34082 -0.77948,6.56537 -0.0516,2.40493 -0.5613,4.94235 -2.20042,6.70294 -1.6391,1.7606 -4.66452,2.37384 -6.47245,0.78708 -0.94388,-0.82838 -1.40088,-2.06606 -1.80795,-3.25407 A 159.30256,159.30256 0 0 1 325.2315,139.8098 c -0.30379,1.34953 -1.4888,3.08893 -2.62087,2.29398 a 2.3469446,2.3469446 0 0 1 -0.6038,-0.77795 c -2.11166,-3.57899 -6.02223,-5.72573 -9.97336,-7.01289 -3.95114,-1.28715 -8.10825,-1.88756 -12.01557,-3.30219 a 30.434838,30.434838 0 0 1 -6.23307,-3.10481 4.9021795,4.9021795 0 0 0 -0.29959,5.0145 c 0.86674,1.53468 2.82806,2.42262 4.507,1.8862 0.8676,-0.27721 1.60029,-0.87951 2.46116,-1.17698 0.86087,-0.29747 2.01632,-0.15148 2.39277,0.678 0.36033,0.79387 -0.18431,1.75425 0.0859,2.58314 0.41147,1.26246 2.31554,1.35972 2.98134,2.50856 0.4954,0.85477 0.0877,1.98981 -0.61954,2.67954 -0.70732,0.68974 -1.65103,1.06804 -2.51446,1.54816 -2.80155,1.55786 -4.79377,4.21725 -7.24215,6.28632 -2.44839,2.06905 -5.90277,3.57967 -8.82068,2.25249 0.69555,-3.52197 -3.49981,-6.1077 -4.27162,-9.61373 -0.25403,-1.15399 -0.12233,-2.37982 -0.48502,-3.50441 -0.5251,-1.62821 -1.96964,-2.74769 -3.15468,-3.98158 a 15.626329,15.626329 0 0 1 -4.2861,-11.36897 c 0.0641,-1.449 0.33024,-2.9216 1.3e-4,-4.33395 -0.3301,-1.41234 -1.49943,-2.77934 -2.94843,-2.71533 -3.3095,0.14616 -7.47875,0.39235 -9.2151,-2.42885 -0.6197,-1.00689 -0.88939,-2.48162 0.006,-3.25305 0.63206,-0.54419 1.56505,-0.49292 2.39509,-0.41127 l 7.45677,0.73353 c 1.74403,0.17158 3.62928,0.31316 5.12588,-0.5986 1.49658,-0.91175 2.14506,-3.33194 0.75928,-4.40463 -1.01254,-0.78378 -2.82665,-0.74128 -3.12098,-1.98745 -0.24513,-1.03785 0.90364,-2.21543 0.28319,-3.08279 -0.44487,-0.62191 -1.44504,-0.44936 -2.0511,0.0169 -0.60607,0.46622 -1.04581,1.14802 -1.7241,1.50101 -1.18985,0.61925 -2.61156,0.0299 -3.89172,-0.37063 -1.28015,-0.40053 -2.99633,-0.43455 -3.61725,0.75444 -0.69442,1.32972 0.61594,3.07211 -0.0731,4.40456 -0.91117,1.76165 -3.99682,0.75878 -5.27646,2.27409 -1.46838,1.7388 0.99918,4.33158 0.50398,6.55292 a 4.0791826,4.0791826 0 0 1 -4.01882,-0.22579 3.9035413,3.9035413 0 0 1 -1.68691,-3.63456 c 0.12263,-0.99926 0.64354,-2.0193 0.29448,-2.9636 -0.28222,-0.76349 -1.0488,-1.21801 -1.76123,-1.61173 l -7.24631,-4.00422 c -0.67276,1.24801 0.17777,2.79522 1.24149,3.73261 1.06371,0.93738 2.39606,1.64339 3.09483,2.87704 a 3.7764155,3.7764155 0 0 1 -1.42103,4.97876 0.8717613,0.8717613 0 0 1 -0.71827,0.12522 1.0020757,1.0020757 0 0 1 -0.46584,-0.62643 c -1.27855,-3.27187 -3.19813,-6.4978 -6.2671,-8.20697 -3.06897,-1.70917 -7.47874,-1.35775 -9.49124,1.52143 -0.47801,0.68386 -0.79882,1.46337 -1.21523,2.18639 -2.21234,3.8413 -6.95521,5.6603 -11.38644,5.54147 a 2.2610977,2.2610977 0 0 1 -1.24215,-0.29189 c -0.71616,-0.4946 -0.68391,-1.54415 -0.57428,-2.40758 l 0.46515,-3.66417 c 0.0933,-0.7358 0.22875,-1.54909 0.81111,-2.00839 0.82091,-0.64747 2.00511,-0.23887 3.05053,-0.25393 a 3.8659649,3.8659649 0 0 0 3.50905,-2.70812 4.3569311,4.3569311 0 0 0 -1.21297,-4.33282 c -0.47915,-0.45004 -1.12227,-1.015345 -0.8692,-1.622041 a 1.3409293,1.3409293 0 0 1 0.94036,-0.633228 c 1.87784,-0.545316 3.86205,-0.688247 5.70858,-1.331689 1.84654,-0.643427 3.63727,-1.959878 4.07458,-3.865768 0.13402,-0.58408 0.19503,-1.291604 0.71965,-1.58117 a 2.1580067,2.1580067 0 0 1 0.83168,-0.169934 4.0469916,4.0469916 0 0 0 3.47142,-4.21896 c 0.88495,-0.618352 2.12478,-0.163497 2.9809,0.494197 0.85613,0.657694 1.61197,1.526621 2.65368,1.810131 1.94131,0.528363 3.81739,-1.190473 5.8293,-1.198441 0.84609,-0.003 1.72193,0.295804 2.5179,0.0091 0.80693,-0.290795 1.2888,-1.094032 1.90811,-1.687462 0.61929,-0.593415 1.70595,-0.955366 2.27781,-0.316098 l -0.48697,-3.607042 a 7.0911365,7.0911365 0 0 0 5.771,-1.043353 l -6.29364,-2.126533 a 1.3683456,1.3683456 0 0 1 -0.58853,-0.31467 c -0.45756,-0.492694 -0.003,-1.260491 0.36899,-1.820571 0.89009,-1.339857 1.03951,-3.546926 -0.42422,-4.213979 -0.9991,-0.455309 -2.1459,0.09122 -3.10487,0.625924 l -4.59357,2.56129 c -0.14601,0.873156 0.9218,1.368008 1.58345,1.956158 a 2.6549083,2.6549083 0 0 1 -1.73131,4.638996 3.308135,3.308135 0 0 1 0.5908,2.804672 l -3.09067,0.222282 a 1.3389897,1.3389897 0 0 1 -1.00243,-0.195645 c -0.33056,-0.293573 -0.28573,-0.808032 -0.36234,-1.243444 -0.18492,-1.050927 -1.21396,-1.787486 -2.26416,-1.976346 -1.05021,-0.18886 -2.1246,0.05327 -3.16454,0.292253 a 1.8886555,1.8886555 0 0 1 -1.36026,-0.03146 1.358322,1.358322 0 0 1 -0.53817,-0.679262 c -0.45592,-1.105461 -0.0298,-2.404837 0.70248,-3.3502 0.73225,-0.945371 1.73467,-1.636464 2.63492,-2.423486 a 15.357653,15.357653 0 0 0 4.56662,-7.083005 c 1.70142,-0.712866 3.46288,-1.681437 5.16427,-2.39432 a 15.802561,15.802561 0 0 1 8.49404,-1.645732 l 5.76197,0.110056 c 1.70594,0.03257 3.45801,0.07434 5.03546,0.724701 1.57744,0.650363 2.9635,2.057008 3.0724,3.759777 a 1.154136,1.154136 0 0 1 -0.36946,1.055142 1.3611813,1.3611813 0 0 1 -0.72847,0.1642 c -1.59099,0.05592 -2.26933,0.452333 -3.86029,0.508226 z"
       id="path48" />
    <path
       inkscape:connector-curvature="0"
       style="fill:#3f3d56;stroke-width:0.40158525"
       d="m 219.79101,89.392154 a 1.6860477,1.6860477 0 0 0 0.45975,-1.69575 3.1538418,3.1538418 0 0 0 -3.26566,0.616653 5.5056296,5.5056296 0 0 0 -0.87487,1.156611 c -0.75714,1.235279 -1.42684,2.71078 -0.98805,4.091601 a 1.1623444,1.1623444 0 0 0 0.53196,0.727574 1.3985006,1.3985006 0 0 0 0.62006,0.09714 20.786616,20.786616 0 0 0 2.49528,-0.153571 c 0.50845,-0.06223 1.09899,-0.205753 1.29549,-0.678792 0.2583,-0.621813 -0.36688,-1.325527 -0.18463,-1.97372 a 2.1562679,2.1562679 0 0 1 0.53243,-0.762483 1.0080352,1.0080352 0 0 0 0.31401,-0.846266 c -0.0736,-0.304137 -0.53926,-0.476681 -0.70691,-0.212447"
       id="path50" />
    <path
       inkscape:connector-curvature="0"
       style="fill:#3f3d56;stroke-width:0.40158525"
       d="m 224.11615,83.784678 a 6.9814634,6.9814634 0 0 0 -2.26119,-0.142067 0.98608861,0.98608861 0 0 0 -0.48183,0.109434 0.80388937,0.80388937 0 0 0 -0.29691,0.429978 2.1361605,2.1361605 0 0 0 1.24367,2.617785 2.6726544,2.6726544 0 0 1 0.77121,0.30992 c 0.63954,0.496185 0.23185,1.510411 0.35291,2.310763 0.13599,0.898706 1.00588,1.653085 0.84638,2.54792 -0.12567,0.704974 -0.87861,1.263207 -0.75739,1.96897 0.12704,0.739185 1.06496,0.9613 1.81263,1.020494 a 2.2796269,2.2796269 0 0 0 1.28423,-0.147227 1.9885217,1.9885217 0 0 0 0.81023,-1.173382 7.521154,7.521154 0 0 0 0.37892,-2.831977 2.6854006,2.6854006 0 0 0 -0.31934,-1.249971 6.9788933,6.9788933 0 0 0 -0.74626,-0.854508 c -1.43247,-1.666259 0.0759,-4.151706 -2.63726,-4.916299 z"
       id="path52" />
    <g
       id="g860"
       transform="translate(-3.2407905,9.1173477)">
      <g
         transform="matrix(0.48380952,0,0,0.48425919,209.06803,52.447975)"
         id="g841">
        <path
           style="fill:#ffffff"
           inkscape:connector-curvature="0"
           class="cls-1"
           d="m 30.56,104.33 c 15.58,0 31.16,-0.14 46.74,0 a 18.36,18.36 0 0 1 18.31,18.4 c 0.14,15.43 0,30.86 0,46.29 0,0.13 -0.05,0.26 -0.16,0.86 A 101.39,101.39 0 0 0 70.58,129.24 105.38,105.38 0 0 0 30.56,104.33 Z"
           id="path823" />
        <path
           style="fill:#ffffff"
           inkscape:connector-curvature="0"
           class="cls-1"
           d="m 169.49,104.35 a 104,104 0 0 0 -65.12,65.19 c 0,-0.26 0,-0.51 -0.05,-0.77 0,-15.17 0,-30.34 0,-45.51 a 18.57,18.57 0 0 1 15.13,-18.56 19,19 0 0 1 3.77,-0.36 q 22.83,0 45.66,0 c 0.22,-0.02 0.42,0 0.61,0.01 z"
           id="path825" />
        <path
           style="fill:#ffffff"
           inkscape:connector-curvature="0"
           class="cls-1"
           d="m 95.65,30.5 c 0,15.58 0.12,31.16 0,46.74 A 18.53,18.53 0 0 1 76.78,95.63 c -15.43,0 -30.86,0 -46.78,0 C 62.41,84.11 84.12,62.44 95.65,30.5 Z"
           id="path827" />
        <path
           style="fill:#ffffff"
           inkscape:connector-curvature="0"
           class="cls-1"
           d="m 170,95.63 h -1.73 q -21.84,0 -43.7,0 a 19.82,19.82 0 0 1 -20.22,-20 c -0.09,-14.87 0,-29.74 0,-44.62 0,-0.22 0,-0.44 0.06,-1 11.43,32.4 33.13,54.09 65.59,65.62 z"
           id="path829" />
      </g>
      <text
         id="text845"
         y="170.90359"
         x="206.80608"
         style="font-style:normal;font-weight:normal;font-size:10.58333302px;line-height:1.25;font-family:sans-serif;letter-spacing:0px;word-spacing:0px;fill:#ffffff;fill-opacity:1;stroke:none;stroke-width:0.26458332"
         xml:space="preserve"><tspan
           style="font-style:normal;font-variant:normal;font-weight:normal;font-stretch:normal;font-size:19.75555611px;line-height:13.22916603px;font-family:'DejaVu Sans';-inkscape-font-specification:'DejaVu Sans';fill:#ffffff;stroke-width:0.26458332"
           y="170.90359"
           x="206.80608"
           id="tspan843"
           sodipodi:role="line">WELCOME</tspan></text>
      <text
         id="text843"
         y="202.35968"
         x="256.67383"
         style="font-style:normal;font-variant:normal;font-weight:normal;font-stretch:normal;font-size:12.69999981px;line-height:6.61458302px;font-family:sans-serif;-inkscape-font-specification:sans-serif;letter-spacing:0px;word-spacing:0px;fill:#000000;fill-opacity:1;stroke:none;stroke-width:0.26458332"
         xml:space="preserve"><tspan
           style="font-style:normal;font-variant:normal;font-weight:200;font-stretch:normal;font-size:11.28888893px;line-height:18.32680511px;font-family:'DejaVu Sans';-inkscape-font-specification:'DejaVu Sans Ultra-Light';text-align:center;text-anchor:middle;fill:#ffffff;stroke-width:0.26458332"
           y="202.35968"
           x="258.46805"
           id="tspan841"
           sodipodi:role="line">For the first time, let us show you something </tspan><tspan
           id="tspan845"
           style="font-style:normal;font-variant:normal;font-weight:200;font-stretch:normal;font-size:11.28888893px;line-height:18.32680511px;font-family:'DejaVu Sans';-inkscape-font-specification:'DejaVu Sans Ultra-Light';text-align:center;text-anchor:middle;fill:#ffffff;stroke-width:0.26458332"
           y="220.68648"
           x="256.67383"
           sodipodi:role="line"><tspan
   id="tspan847"
   style="font-style:normal;font-variant:normal;font-weight:normal;font-stretch:normal;font-size:11.28888893px;line-height:18.32680511px;font-family:'DejaVu Sans';-inkscape-font-specification:'DejaVu Sans'">truly important to you</tspan>.</tspan></text>
    </g>
  </g>
</svg>
