<?xml version="1.0" encoding="UTF-8" standalone="no"?>
<!-- Created with Inkscape (http://www.inkscape.org/) -->

<svg
   xmlns:dc="http://purl.org/dc/elements/1.1/"
   xmlns:cc="http://creativecommons.org/ns#"
   xmlns:rdf="http://www.w3.org/1999/02/22-rdf-syntax-ns#"
   xmlns:svg="http://www.w3.org/2000/svg"
   xmlns="http://www.w3.org/2000/svg"
   xmlns:sodipodi="http://sodipodi.sourceforge.net/DTD/sodipodi-0.dtd"
   xmlns:inkscape="http://www.inkscape.org/namespaces/inkscape"
   width="1920"
   height="1080"
   viewBox="0 0 507.99999 285.75001"
   version="1.1"
   id="svg8"
   inkscape:version="0.92.4 5da689c313, 2019-01-14"
   sodipodi:docname="defaults-applications.svg"
   inkscape:export-filename="/home/brilliant/projects/koompi-os-welcome/src/edited/texted/defalt-applications.png"
   inkscape:export-xdpi="300"
   inkscape:export-ydpi="300">
  <defs
     id="defs2">
    <style
       id="style817">.cls-1{fill:#fff;}</style>
  </defs>
  <sodipodi:namedview
     id="base"
     pagecolor="#ffffff"
     bordercolor="#666666"
     borderopacity="1.0"
     inkscape:pageopacity="0.0"
     inkscape:pageshadow="2"
     inkscape:zoom="0.49497475"
     inkscape:cx="875.78669"
     inkscape:cy="695.57833"
     inkscape:document-units="mm"
     inkscape:current-layer="layer1"
     showgrid="false"
     units="px"
     inkscape:window-width="1920"
     inkscape:window-height="1018"
     inkscape:window-x="0"
     inkscape:window-y="32"
     inkscape:window-maximized="1" />
  <metadata
     id="metadata5">
    <rdf:RDF>
      <cc:Work
         rdf:about="">
        <dc:format>image/svg+xml</dc:format>
        <dc:type
           rdf:resource="http://purl.org/dc/dcmitype/StillImage" />
        <dc:title />
      </cc:Work>
    </rdf:RDF>
  </metadata>
  <g
     inkscape:label="Layer 1"
     inkscape:groupmode="layer"
     id="layer1"
     transform="translate(0,-11.249983)">
    <rect
       style="opacity:1;fill:#333333;fill-opacity:1;stroke:none;stroke-width:1.58864498;stroke-miterlimit:4;stroke-dasharray:none;stroke-opacity:1"
       id="rect815"
       width="508"
       height="285.75"
       x="0.12205896"
       y="11.249975" />
    <text
       xml:space="preserve"
       style="font-style:normal;font-variant:normal;font-weight:bold;font-stretch:normal;font-size:12.69999981px;line-height:6.61458302px;font-family:sans-serif;-inkscape-font-specification:'sans-serif Bold';letter-spacing:0px;word-spacing:0px;fill:#000000;fill-opacity:1;stroke:none;stroke-width:0.26458332"
       x="-109.04597"
       y="75.700813"
       id="text827"><tspan
         sodipodi:role="line"
         id="tspan825"
         x="-109.04597"
         y="75.700813"
         style="stroke-width:0.26458332"> </tspan></text>
    <text
       xml:space="preserve"
       style="font-style:normal;font-variant:normal;font-weight:bold;font-stretch:normal;font-size:12.69999981px;line-height:6.61458302px;font-family:sans-serif;-inkscape-font-specification:'sans-serif Bold';letter-spacing:0px;word-spacing:0px;fill:#000000;fill-opacity:1;stroke:none;stroke-width:0.26458332"
       x="-99.424263"
       y="112.04947"
       id="text831"><tspan
         sodipodi:role="line"
         id="tspan829"
         x="-99.424263"
         y="112.04947"
         style="stroke-width:0.26458332"> </tspan></text>
    <text
       xml:space="preserve"
       style="font-style:normal;font-variant:normal;font-weight:normal;font-stretch:normal;font-size:11.28888889px;line-height:6.61458302px;font-family:sans-serif;-inkscape-font-specification:sans-serif;letter-spacing:0px;word-spacing:0px;fill:#000000;fill-opacity:1;stroke:none;stroke-width:0.26458332;"
       x="249.0952"
       y="198.11024"
       id="text835"><tspan
         sodipodi:role="line"
         id="tspan833"
         x="249.0952"
         y="204.71655"
         style="stroke-width:0.26458332;font-size:11.28888889px;-inkscape-font-specification:sans-serif;font-family:sans-serif;font-weight:normal;font-style:normal;font-stretch:normal;font-variant:normal;" /></text>
    <text
       xml:space="preserve"
       style="font-style:normal;font-variant:normal;font-weight:normal;font-stretch:normal;font-size:12.69999981px;line-height:6.61458302px;font-family:sans-serif;-inkscape-font-specification:sans-serif;letter-spacing:0px;word-spacing:0px;fill:#000000;fill-opacity:1;stroke:none;stroke-width:0.26458332;"
       x="250.16428"
       y="199.71388"
       id="text839"><tspan
         sodipodi:role="line"
         id="tspan837"
         x="250.16428"
         y="206.32019"
         style="stroke-width:0.26458332;-inkscape-font-specification:sans-serif;font-family:sans-serif;font-weight:normal;font-style:normal;font-stretch:normal;font-variant:normal;" /></text>
    <g
       id="g841"
       transform="matrix(0.48380952,0,0,0.48425919,205.61905,61.565323)">
      <path
         id="path823"
         d="m 30.56,104.33 c 15.58,0 31.16,-0.14 46.74,0 a 18.36,18.36 0 0 1 18.31,18.4 c 0.14,15.43 0,30.86 0,46.29 0,0.13 -0.05,0.26 -0.16,0.86 A 101.39,101.39 0 0 0 70.58,129.24 105.38,105.38 0 0 0 30.56,104.33 Z"
         class="cls-1"
         inkscape:connector-curvature="0"
         style="fill:#ffffff" />
      <path
         id="path825"
         d="m 169.49,104.35 a 104,104 0 0 0 -65.12,65.19 c 0,-0.26 0,-0.51 -0.05,-0.77 0,-15.17 0,-30.34 0,-45.51 a 18.57,18.57 0 0 1 15.13,-18.56 19,19 0 0 1 3.77,-0.36 q 22.83,0 45.66,0 c 0.22,-0.02 0.42,0 0.61,0.01 z"
         class="cls-1"
         inkscape:connector-curvature="0"
         style="fill:#ffffff" />
      <path
         id="path827"
         d="m 95.65,30.5 c 0,15.58 0.12,31.16 0,46.74 A 18.53,18.53 0 0 1 76.78,95.63 c -15.43,0 -30.86,0 -46.78,0 C 62.41,84.11 84.12,62.44 95.65,30.5 Z"
         class="cls-1"
         inkscape:connector-curvature="0"
         style="fill:#ffffff" />
      <path
         id="path829"
         d="m 170,95.63 h -1.73 q -21.84,0 -43.7,0 a 19.82,19.82 0 0 1 -20.22,-20 c -0.09,-14.87 0,-29.74 0,-44.62 0,-0.22 0,-0.44 0.06,-1 11.43,32.4 33.13,54.09 65.59,65.62 z"
         class="cls-1"
         inkscape:connector-curvature="0"
         style="fill:#ffffff" />
    </g>
    <g
       transform="matrix(0.31563155,0.34283569,-0.34283569,0.31563155,-37.982742,-183.85706)"
       id="g888"
       style="opacity:0.67900002">
      <path
         style="fill:#e6e6e6"
         inkscape:connector-curvature="0"
         id="path34"
         transform="translate(-213.63946,-115.46498)"
         d="m 779.36054,541.37612 c -114.14062,0 -207,-92.86035 -207,-207.00049 0,-114.14014 92.85938,-207 207,-207 114.14062,0 207,92.85986 207,207 0,114.14014 -92.85937,207.00049 -207,207.00049 z m 0,-412.00049 c -113.03711,0 -205,91.9624 -205,205 0,113.0376 91.96289,205.00049 205,205.00049 113.03711,0 205,-91.96289 205,-205.00049 0,-113.0376 -91.96289,-205 -205,-205 z" />
      <path
         style="fill:#e6e6e6"
         inkscape:connector-curvature="0"
         id="path36"
         transform="translate(-213.63946,-115.46498)"
         d="m 779.36054,483.37612 c -82.15918,0 -149,-66.84131 -149,-149.00049 0,-82.15869 66.84082,-149 149,-149 82.15918,0 149,66.84131 149,149 0,82.15918 -66.84082,149.00049 -149,149.00049 z m 0,-296.00049 c -81.05566,0 -147,65.94385 -147,147 0,81.05615 65.94434,147.00049 147,147.00049 81.05566,0 147,-65.94434 147,-147.00049 0,-81.05615 -65.94433,-147 -147,-147 z" />
      <path
         style="fill:#e6e6e6"
         inkscape:connector-curvature="0"
         id="path38"
         transform="translate(-213.63946,-115.46498)"
         d="m 779.36054,424.71743 a 90.34156,90.34156 0 1 1 90.3418,-90.3418 90.44435,90.44435 0 0 1 -90.3418,90.3418 z m 0,-178.68311 a 88.34156,88.34156 0 1 0 88.3418,88.34131 88.44164,88.44164 0 0 0 -88.3418,-88.34131 z" />
      <circle
         style="fill:#6c63ff"
         id="circle40"
         r="45.87339"
         cy="218.91089"
         cx="565.72113" />
      <circle
         style="fill:#6c63ff"
         id="circle42"
         r="14.54522"
         cy="14.54522"
         cx="598.53906" />
      <circle
         style="fill:#6c63ff"
         id="circle44"
         r="14.54522"
         cy="360.2739"
         cx="416.16437" />
      <circle
         style="fill:#e6e6e6"
         id="circle46"
         r="14.54522"
         cy="235.2739"
         cx="418.16437" />
      <circle
         style="fill:#e6e6e6"
         id="circle48"
         r="14.54522"
         cy="137.2739"
         cx="690.16437" />
      <circle
         style="fill:#e6e6e6"
         id="circle50"
         r="14.54522"
         cy="318.2739"
         cx="747.16437" />
      <circle
         style="fill:#6c63ff"
         id="circle52"
         r="14.54522"
         cy="253.9819"
         cx="704.83105" />
      <circle
         style="fill:#6c63ff"
         id="circle54"
         r="14.54522"
         cy="115.24289"
         cx="385.95508" />
      <circle
         style="fill:#6c63ff"
         id="circle56"
         r="14.54522"
         cy="418.45477"
         cx="619.79742" />
    </g>
    <text
       xml:space="preserve"
       style="font-style:normal;font-weight:normal;font-size:10.58333302px;line-height:1.25;font-family:sans-serif;letter-spacing:0px;word-spacing:0px;fill:#ffffff;fill-opacity:1;stroke:none;stroke-width:0.26458332"
       x="184.11761"
       y="180.02094"
       id="text845"><tspan
         sodipodi:role="line"
         id="tspan843"
         x="184.11761"
         y="180.02094"
         style="font-style:normal;font-variant:normal;font-weight:normal;font-stretch:normal;font-size:19.75555611px;line-height:13.22916603px;font-family:'DejaVu Sans';-inkscape-font-specification:'DejaVu Sans';fill:#ffffff;stroke-width:0.26458332">APPLICATIONS</tspan></text>
    <text
       xml:space="preserve"
       style="font-style:normal;font-variant:normal;font-weight:normal;font-stretch:normal;font-size:12.69999981px;line-height:6.61458302px;font-family:sans-serif;-inkscape-font-specification:sans-serif;letter-spacing:0px;word-spacing:0px;fill:#000000;fill-opacity:1;stroke:none;stroke-width:0.26458332"
       x="253.71887"
       y="211.47702"
       id="text843"><tspan
         sodipodi:role="line"
         x="253.71887"
         y="211.47702"
         style="font-style:normal;font-variant:normal;font-weight:200;font-stretch:normal;font-size:11.28888893px;line-height:18.32680511px;font-family:'DejaVu Sans';-inkscape-font-specification:'DejaVu Sans Ultra-Light';text-align:center;text-anchor:middle;fill:#ffffff;stroke-width:0.26458332"
         id="tspan845">Here are the some important applications</tspan><tspan
         sodipodi:role="line"
         x="253.71887"
         y="229.80382"
         style="font-style:normal;font-variant:normal;font-weight:200;font-stretch:normal;font-size:11.28888893px;line-height:18.32680511px;font-family:'DejaVu Sans';-inkscape-font-specification:'DejaVu Sans Ultra-Light';text-align:center;text-anchor:middle;fill:#ffffff;stroke-width:0.26458332"
         id="tspan850">that we have shipped with KOOMPI OS</tspan></text>
  </g>
</svg>
