<?xml version="1.0" encoding="UTF-8" standalone="no"?>
<!-- Created with Inkscape (http://www.inkscape.org/) -->

<svg
   xmlns:dc="http://purl.org/dc/elements/1.1/"
   xmlns:cc="http://creativecommons.org/ns#"
   xmlns:rdf="http://www.w3.org/1999/02/22-rdf-syntax-ns#"
   xmlns:svg="http://www.w3.org/2000/svg"
   xmlns="http://www.w3.org/2000/svg"
   xmlns:sodipodi="http://sodipodi.sourceforge.net/DTD/sodipodi-0.dtd"
   xmlns:inkscape="http://www.inkscape.org/namespaces/inkscape"
   width="1920"
   height="1080"
   viewBox="0 0 507.99999 285.75001"
   version="1.1"
   id="svg8"
   inkscape:version="0.92.4 5da689c313, 2019-01-14"
   sodipodi:docname="menu.svg"
   inkscape:export-filename="/home/brilliant/projects/koompi-os-welcome/src/edited/texted/5.png"
   inkscape:export-xdpi="300"
   inkscape:export-ydpi="300">
  <defs
     id="defs2">
    <style
       id="style817">.cls-1{fill:#fff;}</style>
  </defs>
  <sodipodi:namedview
     id="base"
     pagecolor="#ffffff"
     bordercolor="#666666"
     borderopacity="1.0"
     inkscape:pageopacity="0.0"
     inkscape:pageshadow="2"
     inkscape:zoom="0.49497475"
     inkscape:cx="883.44147"
     inkscape:cy="760.34428"
     inkscape:document-units="mm"
     inkscape:current-layer="layer1"
     showgrid="false"
     units="px"
     inkscape:window-width="1920"
     inkscape:window-height="1018"
     inkscape:window-x="0"
     inkscape:window-y="32"
     inkscape:window-maximized="1"
     showguides="false" />
  <metadata
     id="metadata5">
    <rdf:RDF>
      <cc:Work
         rdf:about="">
        <dc:format>image/svg+xml</dc:format>
        <dc:type
           rdf:resource="http://purl.org/dc/dcmitype/StillImage" />
        <dc:title />
      </cc:Work>
    </rdf:RDF>
  </metadata>
  <g
     inkscape:label="Layer 1"
     inkscape:groupmode="layer"
     id="layer1"
     transform="translate(0,-11.249983)">
    <rect
       style="opacity:1;fill:#333333;fill-opacity:1;stroke:#333333;stroke-width:1.58864498;stroke-miterlimit:4;stroke-dasharray:none;stroke-opacity:1"
       id="rect815"
       width="508"
       height="285.75"
       x="-4.7961635e-14"
       y="11.249983" />
    <text
       xml:space="preserve"
       style="font-style:normal;font-variant:normal;font-weight:bold;font-stretch:normal;font-size:12.69999981px;line-height:6.61458302px;font-family:sans-serif;-inkscape-font-specification:'sans-serif Bold';letter-spacing:0px;word-spacing:0px;fill:#000000;fill-opacity:1;stroke:none;stroke-width:0.26458332"
       x="-109.04597"
       y="75.700813"
       id="text827"><tspan
         sodipodi:role="line"
         id="tspan825"
         x="-109.04597"
         y="75.700813"
         style="stroke-width:0.26458332"> </tspan></text>
    <text
       xml:space="preserve"
       style="font-style:normal;font-variant:normal;font-weight:bold;font-stretch:normal;font-size:12.69999981px;line-height:6.61458302px;font-family:sans-serif;-inkscape-font-specification:'sans-serif Bold';letter-spacing:0px;word-spacing:0px;fill:#000000;fill-opacity:1;stroke:none;stroke-width:0.26458332"
       x="-99.424263"
       y="112.04947"
       id="text831"><tspan
         sodipodi:role="line"
         id="tspan829"
         x="-99.424263"
         y="112.04947"
         style="stroke-width:0.26458332"> </tspan></text>
    <text
       xml:space="preserve"
       style="font-style:normal;font-variant:normal;font-weight:normal;font-stretch:normal;font-size:11.28888889px;line-height:6.61458302px;font-family:sans-serif;-inkscape-font-specification:sans-serif;letter-spacing:0px;word-spacing:0px;fill:#000000;fill-opacity:1;stroke:none;stroke-width:0.26458332;"
       x="249.0952"
       y="198.11024"
       id="text835"><tspan
         sodipodi:role="line"
         id="tspan833"
         x="249.0952"
         y="204.71655"
         style="stroke-width:0.26458332;font-size:11.28888889px;-inkscape-font-specification:sans-serif;font-family:sans-serif;font-weight:normal;font-style:normal;font-stretch:normal;font-variant:normal;" /></text>
    <text
       xml:space="preserve"
       style="font-style:normal;font-variant:normal;font-weight:normal;font-stretch:normal;font-size:12.69999981px;line-height:6.61458302px;font-family:sans-serif;-inkscape-font-specification:sans-serif;letter-spacing:0px;word-spacing:0px;fill:#000000;fill-opacity:1;stroke:none;stroke-width:0.26458332;"
       x="250.16428"
       y="199.71388"
       id="text839"><tspan
         sodipodi:role="line"
         id="tspan837"
         x="250.16428"
         y="206.32019"
         style="stroke-width:0.26458332;-inkscape-font-specification:sans-serif;font-family:sans-serif;font-weight:normal;font-style:normal;font-stretch:normal;font-variant:normal;" /></text>
    <g
       id="g5327"
       transform="translate(-33.840675)">
      <g
         transform="matrix(0.23181254,0,0,0.23202799,230.81875,130.93495)"
         id="g841">
        <path
           style="fill:#ffffff"
           inkscape:connector-curvature="0"
           class="cls-1"
           d="m 30.56,104.33 c 15.58,0 31.16,-0.14 46.74,0 a 18.36,18.36 0 0 1 18.31,18.4 c 0.14,15.43 0,30.86 0,46.29 0,0.13 -0.05,0.26 -0.16,0.86 A 101.39,101.39 0 0 0 70.58,129.24 105.38,105.38 0 0 0 30.56,104.33 Z"
           id="path823" />
        <path
           style="fill:#ffffff"
           inkscape:connector-curvature="0"
           class="cls-1"
           d="m 169.49,104.35 a 104,104 0 0 0 -65.12,65.19 c 0,-0.26 0,-0.51 -0.05,-0.77 0,-15.17 0,-30.34 0,-45.51 a 18.57,18.57 0 0 1 15.13,-18.56 19,19 0 0 1 3.77,-0.36 q 22.83,0 45.66,0 c 0.22,-0.02 0.42,0 0.61,0.01 z"
           id="path825" />
        <path
           style="fill:#ffffff"
           inkscape:connector-curvature="0"
           class="cls-1"
           d="m 95.65,30.5 c 0,15.58 0.12,31.16 0,46.74 A 18.53,18.53 0 0 1 76.78,95.63 c -15.43,0 -30.86,0 -46.78,0 C 62.41,84.11 84.12,62.44 95.65,30.5 Z"
           id="path827" />
        <path
           style="fill:#ffffff"
           inkscape:connector-curvature="0"
           class="cls-1"
           d="m 170,95.63 h -1.73 q -21.84,0 -43.7,0 a 19.82,19.82 0 0 1 -20.22,-20 c -0.09,-14.87 0,-29.74 0,-44.62 0,-0.22 0,-0.44 0.06,-1 11.43,32.4 33.13,54.09 65.59,65.62 z"
           id="path829" />
      </g>
      <text
         id="text845"
         y="161.18605"
         x="280.8602"
         style="font-style:normal;font-weight:normal;font-size:10.58333302px;line-height:1.25;font-family:sans-serif;letter-spacing:0px;word-spacing:0px;fill:#ffffff;fill-opacity:1;stroke:none;stroke-width:0.26458332"
         xml:space="preserve"><tspan
           style="font-style:normal;font-variant:normal;font-weight:normal;font-stretch:normal;font-size:19.75555611px;line-height:13.22916603px;font-family:'DejaVu Sans';-inkscape-font-specification:'DejaVu Sans';fill:#ffffff;stroke-width:0.26458332"
           y="161.18605"
           x="280.8602"
           id="tspan843"
           sodipodi:role="line">MENU</tspan></text>
    </g>
    <g
       id="g5307"
       transform="translate(-123.93775,63.615596)">
      <path
         id="path12"
         d="m 485.77282,162.10035 -0.578,-0.17648 -215.70091,-65.793776 0.59337,-0.29624 148.07416,-73.943544 0.11653,0.241586 z M 270.91707,96.010974 484.77132,161.24148 417.91805,22.603444 Z"
         style="fill:#3f3d56;stroke-width:0.26458332"
         inkscape:connector-curvature="0" />
      <rect
         id="rect14"
         height="51.329166"
         width="53.710415"
         y="132.97502"
         x="455.59296"
         style="fill:#6c63ff;stroke-width:0.26458332" />
      <rect
         id="rect16"
         height="51.329166"
         width="53.710415"
         x="398.17838"
         style="fill:#6c63ff;stroke-width:0.26458332"
         y="-3.2854128" />
      <rect
         id="rect18"
         height="51.329166"
         width="53.710415"
         y="70.268753"
         x="246.57213"
         style="fill:#6c63ff;stroke-width:0.26458332" />
      <polygon
         id="polygon48"
         points="768.165,97.307 716.165,119.307 716.165,74.307 "
         style="fill:#3f3d56"
         transform="matrix(0.26458333,0,0,0.26458333,230.57836,-3.2854125)" />
      <path
         id="path50"
         d="M 293.68569,116.44345 H 252.93986 V 75.69762 h 40.74583 z m -40.17992,-0.56592 h 39.61401 V 76.263535 h -39.61401 z"
         style="fill:#d0cde1;stroke-width:0.26458332"
         inkscape:connector-curvature="0" />
      <rect
         id="rect52"
         height="2.2712178"
         width="24.90023"
         y="88.58493"
         x="260.86267"
         style="fill:#3f3d56;stroke-width:0.26458332" />
      <rect
         id="rect54"
         height="2.2712178"
         width="24.90023"
         y="94.934929"
         x="260.86267"
         style="fill:#3f3d56;stroke-width:0.26458332" />
      <rect
         id="rect56"
         height="2.2712178"
         width="24.90023"
         y="101.28493"
         x="260.86267"
         style="fill:#3f3d56;stroke-width:0.26458332" />
      <path
         id="path58"
         d="m 502.20548,168.41771 h -39.68751 v -19.31459 h 39.68751 z m -39.15834,-0.52917 h 38.62918 v -18.25625 h -38.62918 z"
         style="fill:#d0cde1;stroke-width:0.26458332"
         inkscape:connector-curvature="0" />
      <circle
         id="circle60"
         r="2.9104166"
         cy="158.76042"
         cx="473.36588"
         style="fill:#3f3d56;stroke-width:0.26458332" />
      <circle
         id="circle62"
         r="2.9104166"
         cy="158.76042"
         cx="482.36169"
         style="fill:#3f3d56;stroke-width:0.26458332" />
      <circle
         id="circle64"
         r="2.9104166"
         cy="158.76042"
         cx="491.35751"
         style="fill:#3f3d56;stroke-width:0.26458332" />
      <path
         id="path66"
         d="m 444.87735,32.036462 h -39.6875 V 12.721879 h 39.6875 z m -39.15834,-0.529167 h 38.62917 v -18.25625 h -38.62917 z"
         style="fill:#d0cde1;stroke-width:0.26458332"
         inkscape:connector-curvature="0" />
    </g>
  </g>
</svg>
