<?xml version="1.0" encoding="UTF-8" standalone="no"?>
<!-- Created with Inkscape (http://www.inkscape.org/) -->

<svg
   xmlns:dc="http://purl.org/dc/elements/1.1/"
   xmlns:cc="http://creativecommons.org/ns#"
   xmlns:rdf="http://www.w3.org/1999/02/22-rdf-syntax-ns#"
   xmlns:svg="http://www.w3.org/2000/svg"
   xmlns="http://www.w3.org/2000/svg"
   xmlns:sodipodi="http://sodipodi.sourceforge.net/DTD/sodipodi-0.dtd"
   xmlns:inkscape="http://www.inkscape.org/namespaces/inkscape"
   width="1920"
   height="1080"
   viewBox="0 0 507.99999 285.75001"
   version="1.1"
   id="svg8"
   inkscape:version="0.92.4 5da689c313, 2019-01-14"
   sodipodi:docname="menusvg.svg"
   inkscape:export-filename="/home/brilliant/projects/koompi-os-welcome/src/edited/texted/menu.png"
   inkscape:export-xdpi="300"
   inkscape:export-ydpi="300">
  <defs
     id="defs2">
    <style
       id="style817">.cls-1{fill:#fff;}</style>
  </defs>
  <sodipodi:namedview
     id="base"
     pagecolor="#ffffff"
     bordercolor="#666666"
     borderopacity="1.0"
     inkscape:pageopacity="0.0"
     inkscape:pageshadow="2"
     inkscape:zoom="0.49497475"
     inkscape:cx="53.030474"
     inkscape:cy="442.19914"
     inkscape:document-units="mm"
     inkscape:current-layer="layer1"
     showgrid="false"
     units="px"
     inkscape:window-width="1920"
     inkscape:window-height="1018"
     inkscape:window-x="0"
     inkscape:window-y="32"
     inkscape:window-maximized="1" />
  <metadata
     id="metadata5">
    <rdf:RDF>
      <cc:Work
         rdf:about="">
        <dc:format>image/svg+xml</dc:format>
        <dc:type
           rdf:resource="http://purl.org/dc/dcmitype/StillImage" />
        <dc:title />
      </cc:Work>
    </rdf:RDF>
  </metadata>
  <g
     inkscape:label="Layer 1"
     inkscape:groupmode="layer"
     id="layer1"
     transform="translate(0,-11.249983)">
    <rect
       style="opacity:1;fill:#008080;fill-opacity:1;stroke:none;stroke-width:1.58864498;stroke-miterlimit:4;stroke-dasharray:none;stroke-opacity:1"
       id="rect815"
       width="508"
       height="285.75"
       x="0"
       y="11.249975" />
    <g
       id="g840"
       transform="translate(-7.8334581)">
      <g
         transform="matrix(0.22636648,0,0,0.22636648,198.73503,131.50078)"
         id="g841">
        <path
           style="fill:#ffffff"
           inkscape:connector-curvature="0"
           class="cls-1"
           d="m 30.56,104.33 c 15.58,0 31.16,-0.14 46.74,0 a 18.36,18.36 0 0 1 18.31,18.4 c 0.14,15.43 0,30.86 0,46.29 0,0.13 -0.05,0.26 -0.16,0.86 A 101.39,101.39 0 0 0 70.58,129.24 105.38,105.38 0 0 0 30.56,104.33 Z"
           id="path823" />
        <path
           style="fill:#ffffff"
           inkscape:connector-curvature="0"
           class="cls-1"
           d="m 169.49,104.35 a 104,104 0 0 0 -65.12,65.19 c 0,-0.26 0,-0.51 -0.05,-0.77 0,-15.17 0,-30.34 0,-45.51 a 18.57,18.57 0 0 1 15.13,-18.56 19,19 0 0 1 3.77,-0.36 q 22.83,0 45.66,0 c 0.22,-0.02 0.42,0 0.61,0.01 z"
           id="path825" />
        <path
           style="fill:#ffffff"
           inkscape:connector-curvature="0"
           class="cls-1"
           d="m 95.65,30.5 c 0,15.58 0.12,31.16 0,46.74 A 18.53,18.53 0 0 1 76.78,95.63 c -15.43,0 -30.86,0 -46.78,0 C 62.41,84.11 84.12,62.44 95.65,30.5 Z"
           id="path827" />
        <path
           style="fill:#ffffff"
           inkscape:connector-curvature="0"
           class="cls-1"
           d="m 170,95.63 h -1.73 q -21.84,0 -43.7,0 a 19.82,19.82 0 0 1 -20.22,-20 c -0.09,-14.87 0,-29.74 0,-44.62 0,-0.22 0,-0.44 0.06,-1 11.43,32.4 33.13,54.09 65.59,65.62 z"
           id="path829" />
      </g>
      <text
         id="text845"
         y="163.20349"
         x="245.42595"
         style="font-style:normal;font-weight:normal;font-size:10.58333302px;line-height:1.25;font-family:sans-serif;letter-spacing:0px;word-spacing:0px;fill:#ffffff;fill-opacity:1;stroke:none;stroke-width:0.26458332"
         xml:space="preserve"><tspan
           style="font-style:normal;font-variant:normal;font-weight:200;font-stretch:normal;font-size:25.39999962px;line-height:13.22916603px;font-family:'DejaVu Sans';-inkscape-font-specification:'DejaVu Sans Ultra-Light';fill:#ffffff;stroke-width:0.26458332"
           y="163.20349"
           x="245.42595"
           id="tspan843"
           sodipodi:role="line">MENU</tspan></text>
    </g>
    <text
       xml:space="preserve"
       style="font-style:normal;font-variant:normal;font-weight:bold;font-stretch:normal;font-size:12.69999981px;line-height:6.61458302px;font-family:sans-serif;-inkscape-font-specification:'sans-serif Bold';letter-spacing:0px;word-spacing:0px;fill:#000000;fill-opacity:1;stroke:none;stroke-width:0.26458332"
       x="-109.04597"
       y="75.700813"
       id="text827"><tspan
         sodipodi:role="line"
         id="tspan825"
         x="-109.04597"
         y="75.700813"
         style="stroke-width:0.26458332"> </tspan></text>
    <text
       xml:space="preserve"
       style="font-style:normal;font-variant:normal;font-weight:bold;font-stretch:normal;font-size:12.69999981px;line-height:6.61458302px;font-family:sans-serif;-inkscape-font-specification:'sans-serif Bold';letter-spacing:0px;word-spacing:0px;fill:#000000;fill-opacity:1;stroke:none;stroke-width:0.26458332"
       x="-99.424263"
       y="112.04947"
       id="text831"><tspan
         sodipodi:role="line"
         id="tspan829"
         x="-99.424263"
         y="112.04947"
         style="stroke-width:0.26458332"> </tspan></text>
  </g>
</svg>
